/* XPM */
static char *barrel[] = {
/* columns rows colors chars-per-pixel */
"64 64 10 1 ",
"  c #363636",
". c #3B2E15",
"X c #53391C",
"o c #724928",
"O c #4F4F4F",
"+ c #6A6A6A",
"@ c #8C5734",
"# c #A0653D",
"$ c None",
"% c gray52",
/* pixels */
"$$$$$$$$$$$$$$$$$$$$$$$$$$$$$$$$$$$$$$$$$$$$$$$$$$$$$$$$$$$$$$$$",
"$$$$$$$$$$$$$$$$$$$$$$$$$$$$$$$$$$$$$$$$$$$$$$$$$$$$$$$$$$$$$$$$",
"$$$$$$$$$$$$$$$$$$$$$$$$$$$$$$$$$$$$$$$$$$$$$$$$$$$$$$$$$$$$$$$$",
"$$$$$$$$$$$$$$$$$$$$$$$$$$$$$$$$$$$$$$$$$$$$$$$$$$$$$$$$$$$$$$$$",
"$$$$$$$$$$$$$$$$$$$$$$$$$$$$$$$$$$$$$$$$$$$$$$$$$$$$$$$$$$$$$$$$",
"$$$$$$$$$$$$$$$$$$$$$$$$$$$$$$$$$$$$$$$$$$$$$$$$$$$$$$$$$$$$$$$$",
"$$$$$$$$$$$$$$$$$$$$$$$$$$$$$$$$$$$$$$$$$$$$$$$$$$$$$$$$$$$$$$$$",
"$$$$$$$$$$$$$$$$$$$$$$$$$$$$$$$$$$$$$$$$$$$$$$$$$$$$$$$$$$$$$$$$",
"$$$$$$$$$$$$$$$$$$$$$$$$$$$$$$$$$$$$$$$$$$$$$$$$$$$$$$$$$$$$$$$$",
"$$$$$$$$$$$$$$$$$$$$$$$$$$$$$$$$$$$$$$$$$$$$$$$$$$$$$$$$$$$$$$$$",
"$$$$$$$$$$$$$$$$$$$$$$$$$$$$$$$$$$$$$$$$$$$$$$$$$$$$$$$$$$$$$$$$",
"$$$$$$$$$$$$$$$$$$$$$$$$$$$$$$$$$$$$$$$$$$$$$$$$$$$$$$$$$$$$$$$$",
"$$$$$$$$$$$$$$$$$$$$$$$$$$$$$$$$$$$$$$$$$$$$$$$$$$$$$$$$$$$$$$$$",
"$$$$$$$$$$$$$$$$$$$$$$$$$$$$$$$$$$$$$$$$$$$$$$$$$$$$$$$$$$$$$$$$",
"$$$$$$$$$$$$$$$$$$$$$$$$$$$$$$$$$$$$$$$$$$$$$$$$$$$$$$$$$$$$$$$$",
"$$$$$$$$$$$$$$$$$$$$$$$$$$$$$$$$$$$$$$$$$$$$$$$$$$$$$$$$$$$$$$$$",
"$$$$$$$$$$$$$$$$$$$$$$$$$$$$$$$$$$$$$$$$$$$$$$$$$$$$$$$$$$$$$$$$",
"$$$$$$$$$$$$$$$$$$$$$$$$$$$$$$$$$$$$$$$$$$$$$$$$$$$$$$$$$$$$$$$$",
"$$$$$$$$$$$$$$$$$$$$$$$$$$$$$$$$$$$$$$$$$$$$$$$$$$$$$$$$$$$$$$$$",
"$$$$$$$$$$$$$$$$$$$$$$$$$$$$$$$$$$$$$$$$$$$$$$$$$$$$$$$$$$$$$$$$",
"$$$$$$$$$$$$$$$$$$$$$$$$$$$$$$$$$$$$$$$$$$$$$$$$$$$$$$$$$$$$$$$$",
"$$$$$$$$$$$$$$$$$$$$$$$$$$$$$$$$$$$$$$$$$$$$$$$$$$$$$$$$$$$$$$$$",
"$$$$$$$$$$$$$$$$$$$$$$$$$$$$$$$$$$$$$$$$$$$$$$$$$$$$$$$$$$$$$$$$",
"$$$$$$$$$$$$$$$$$$$$$$$$$$$$$$$$$$$$$$$$$$$$$$$$$$$$$$$$$$$$$$$$",
"$$$$$$$$$$$$$$$$$$$$$$$$$$$$$$$$$$$$$$$$$$$$$$$$$$$$$$$$$$$$$$$$",
"$$$$$$$$$$$$$$$$$$$$$$$$$$$$$$$$$$$$$$$$$$$$$$$$$$$$$$$$$$$$$$$$",
"$$$$$$$$$$$$$$$$$$$$$$$$$$$$$$$$$$$$$$$$$$$$$$$$$$$$$$$$$$$$$$$$",
"$$$$$$$$$$$$$$$$$$$$$$$$$$$$$$$$$$$$$$$$$$$$$$$$$$$$$$$$$$$$$$$$",
"$$$$$$$$$$$$$$$$$$$$$$$$$$$$$$$$$$$$$$$$$$$$$$$$$$$$$$$$$$$$$$$$",
"$$$$$$$$$$$$$$$$$$$$$$$$$$$$$$$$$$$$$$$$$$$$$$$$$$$$$$$$$$$$$$$$",
"$$$$$$$$$$$$$$$$$$$$$$$$$$$$$$$$$$$$$$$$$$$$$$$$$$$$$$$$$$$$$$$$",
"$$$$$$$$$$$$$$$$$$$$$$$+++++++++++++++%+%+$$$$$$$$$$$$$$$$$$$$$$",
"$$$$$$$$$$$$$$$$$$$$$++O  O   OOOOOOOOO+++++$$$$$$$$$$$$$$$$$$$$",
"$$$$$$$$$$$$$$$$$$$$+%   . .  . . .    O O+O+$$$$$$$$$$$$$$$$$$$",
"$$$$$$$$$$$$$$$$$$$$+++%++%+++++O+O+OOOO O   $$$$$$$$$$$$$$$$$$$",
"$$$$$$$$$$$$$$$$$$$@@++%%+++O+OOO+OOOO O.   ..$$$$$$$$$$$$$$$$$$",
"$$$$$$$$$$$$$$$$$$$o@o@@OooooXooXXXX X......X.$$$$$$$$$$$$$$$$$$",
"$$$$$$$$$$$$$$$$$$@o@@##@##@@o@@@@@oXoooXoXX.XX$$$$$$$$$$$$$$$$$",
"$$$$$$$$$$$$$$$$$$o@o##@@###@o@@@@@XXooXXXoX.X.$$$$$$$$$$$$$$$$$",
"$$$$$$$$$$$$$$$$$$o@@##@###@o@#@@@ooXoooXXoX.X $$$$$$$$$$$$$$$$$",
"$$$$$$$$$$$$$$$$$OO+%+#@###@@@@@@@ooXooooX O   $$$$$$$$$$$$$$$$$",
"$$$$$$$$$$$$$$$$$OO+++%%+++++++++OOOOOOOO      .$$$$$$$$$$$$$$$$",
"$$$$$$$$$$$$$$$$$O++++++++O+OOOOO OOOO   O     .$$$$$$$$$$$$$$$$",
"$$$$$$$$$$$$$$$$$ooO++++O+++O+O+OOOOOO      . XX$$$$$$$$$$$$$$$$",
"$$$$$$$$$$$$$$$$$o@@#@@X@oooXXoXXXXo.XX.X..XX.X.$$$$$$$$$$$$$$$$",
"$$$$$$$$$$$$$$$$$o@o###@####o@@@@@ooXXoooXX.X.X.$$$$$$$$$$$$$$$$",
"$$$$$$$$$$$$$$$$$o@o###@####@@@@@oooXoooooXXX.X.$$$$$$$$$$$$$$$$",
"$$$$$$$$$$$$$$$$$o@o###@####o@@@@oooXooXXXXXX.X.$$$$$$$$$$$$$$$$",
"$$$$$$$$$$$$$$$$$@@o###@####o@@@@@ooXooooXXXX.XX$$$$$$$$$$$$$$$$",
"$$$$$$$$$$$$$$$$$o@o###@####@@@@@@ooXooXoX.XX.X.$$$$$$$$$$$$$$$$",
"$$$$$$$$$$$$$$$$$o@o########o@@@o@ooXoooXX.XX.X.$$$$$$$$$$$$$$$$",
"$$$$$$$$$$$$$$$$$+@o###@#@##o@@@@oooXXooooXXX.  $$$$$$$$$$$$$$$$",
"$$$$$$$$$$$$$$$$$++%++#@####o@@o@oooXoooXXX     $$$$$$$$$$$$$$$$",
"$$$$$$$$$$$$$$$$$O+++%%%++++++++O+OOOOOOOOO    $$$$$$$$$$$$$$$$$",
"$$$$$$$$$$$$$$$$$OO++++++O++O+OOO OOOO O       .$$$$$$$$$$$$$$$$",
"$$$$$$$$$$$$$$$$$$oOO+O++++OOOO+OOOOOO  OO ....X$$$$$$$$$$$$$$$$",
"$$$$$$$$$$$$$$$$$$ooooooooXX.XXXXXXX.XXXX..X.XXX$$$$$$$$$$$$$$$$",
"$$$$$$$$$$$$$$$$$$@@o@#@##@@X@o@@o@oXXoXo.XX.X.$$$$$$$$$$$$$$$$$",
"$$$$$$$$$$$$$$$$$$$o@@#o@@@@oo@ooooXXooXX....X.$$$$$$$$$$$$$$$$$",
"$$$$$$$$$$$$$$$$$$$+@o@@o#@@ooo@@ooXXoooX.X.X.$$$$$$$$$$$$$$$$$$",
"$$$$$$$$$$$$$$$$$$$++%%@o@@@oXooo@o XooX..... $$$$$$$$$$$$$$$$$$",
"$$$$$$$$$$$$$$$$$$$$++++%+%+++++OOO  O     ..$$$$$$$$$$$$$$$$$$$",
"$$$$$$$$$$$$$$$$$$$$$+++++O+O+O+OO O  O   . $$$$$$$$$$$$$$$$$$$$",
"$$$$$$$$$$$$$$$$$$$$$$$OO OO O        ... $$$$$$$$$$$$$$$$$$$$$$"
};
