/* XPM */
static char *bluestone[] = {
/* columns rows colors chars-per-pixel */
"64 64 10 1 ",
"  c black",
". c #212121",
"X c #00004F",
"o c #000073",
"O c gray33",
"+ c #000091",
"@ c #0000AD",
"# c #0000CC",
"$ c #0000E0",
"% c #4040FC",
/* pixels */
".o+ooo+oo++ooooooo+o+o.O+++o+++++++++++o++++++++++++.Oo+ooo+ooo.",
".@+@@@+@+@+@@@@@@++@@+..@##@@#@@@@@@@##@@@@@@@@#@@#@..@@@@@@@@@.",
" @@@++o@@++++++++@oooX .@@@@++#+oo++@++oo@@@+@@@@++o .@@@++@@++ ",
" @+o+++@oo@+@X@+ooo+oX .@@@@++o+XooXo@@XoooooXoo+ooo .@@@@++@@X ",
" @+@o@#+o+o+++oXX+oXXX .                             .@@@##@@oo ",
" ++o@##Xooo@++++oooXXX .@@@@+@@@@@@@@@+@@+@...........@#@@+oooX ",
" @++@@+@@+@@@+@ooXXXoo .@@@@@@++@++@++@#@@@ .@@@@++o..@++@o++Xo ",
" @@+@@@@++X@@+o+oooXXX .@@#$#@@@@++@@@+@@+@ .+++++oo .@+++oo++o ",
" @+o+@+++o+oo+o+oo+oXX .@@#@#+@@@#++@o@o+@o .@+++o+o .@@@+@+++X ",
" ++++@ooo@@oXoXoX+ooXX .@@@@++@@@+@@++ooo+o .+@++oXX .@+++@@+XX ",
" +o++++o+@@oooXoXXooXX .@@@@@@+@#@+@oX+oooX .@@+o@oX .#o@@o++XX ",
" ++++o++ooXoXXooXXXXXX .@@@@@@@@@@@@Xoo@oXX .@oo+ooX .@#+ooXooX ",
" @o+oo+++XoX+oXXoXXXXX .@@+@+@++@@@@++ooXXX .@+++ooX .@ooooo++X ",
" ++++ooXXXooXoXXXX oXX .@@$#+o@++o+o+++oXoX .@@++ooo .#oooXXXXX ",
" @o+Xooo+XXXXXXXXXXXXX .@###+++@@o+oo+o+ooX .@o+@XXX .          ",
"                       .+@@+++o@+@+++oXoXXX .+@++@Xo ...........",
"@@@@@@+@+@@@@+@ @@@@@++ @@++++@+@@+++ooXXXX .+@+@+oo .@+@@ #@@@#",
"#@@++#@@+@@o@+o @@@@@o# +@@@@@+@+++XooXXXXX .+++oooX .@@+o @#@@@",
"@@+@+@++o+++o++ @@#@@oo @@+@#++o++ooooXXXXX .@+XXXXX .@@@+ #@@@@",
"@@+@@++o+o+o+o+ @#@@++o +@@@@++++XooXXXooXX .+oXoXXX .++oX @@#@@",
"+++@@@+o++++X++ @@+o++o @@@+++++XXooXooXXXX .@ooXXXX .@XoX ##@@@",
"@@++@$++o+Xoooo @+#++oX                     .             .@@@@@",
"@+o++@+oo+XooXX @@+Xo+X .........................@@@@@@@@..#@@++",
"@@++o+++++o+X+X @@++oXo .@@@@@@@@@@@@@@@@@@@@+@..@#@#@@++ .@@+++",
"@@++@+++++ooXXo @#o++oX .@@@@@#@@@@@+#@o@@@@++X .@#@#@@++ .@#@++",
"@++++@@oo+++oXo @oXooXo .@#@@#$$#$$@@@@@#+@@++X .@####@+o .@@@@@",
"@+o+@@@@+oo+oXX +oXoXXo .@@@###$@$#$@o@oo@o+@Xo .@@+#@++o .##@@+",
"@+@++@@@ooooooX         .@@@@@##@@##@@o+oo@ooXX .@#@@+++o .@@#@@",
"@+o@++@+XoXoXXX .........@@@@@@+@@#+@@o++ooXXXo .@##@+++o .#@@@@",
"+++@@@++ooXooXX .@@@@@@..@@@#@++@@@++@oo+ooooXX .@##@+@+X .@@+@@",
"++++@@oXXXXXXXX .@@++++ .@#@@@+++@@o@@@o++XoooX .@@#++++X .#@+@o",
"+++o+ooooo+ooXX .@@@+++ .@#@@@@@+@ooo+@oXoXoooX .@@@+@@@o .@++@+",
"++@+ooooXo+oXXX .@@+ooo .@#+++@@+@oooooooXXXXXX .@@#+@@+o .#++o+",
"+@+o+oooXXXooXX .@@+@+X .@@@@++@+oo+ooXooXXXXXX .@+#++++X .@@ooo",
"o+++ooooXXXXXoX .@@@ooo .@o#o@@o+oooooXoXooXXXX .@#@@+Xoo .#@++@",
"+++oo++oXooXXXX .@@@@XX .@@@o@@ooXXo+ooXXXXXXXX .@#+@o+oX .@@@++",
"o+oo+X+oXXXXXXX .@+@X+o .@@o@@oXXXXoooXXXXXXXXX .@#@o+++o .#++@o",
"o+oXoXoXoXXXXXX .@++@XX .                       .@@@ooooX .@++++",
"o+@+oooXXXXX XX .@@+@+X .........................+@@@oXoX .#@+oo",
"o++ooooXXXXXXXX .@@++Xo .@+@+@+@@@+@@+@@+@+@@+@..@@@@@+XX .@@+o+",
"                .@@ooXX .@#@#@@#@@@+@@++++o@+@o .@#@@@+XX .     ",
".....Xooo+++ooo..@@++oX .@@###@@@@#@++@@++++++o .+@+@++XX .++++ ",
".+@@#@@#@##@@@#..@@+ooo .@####@@@@#@o+oo@@++++o .+#@oooXX .++oo ",
".@@@@#@@@@@@@@@ .+++Xoo .@@@@###@@@+o+ooo+o+o+X .@@+oXXoX .++oo ",
".@@@@#$@#@#+@@@ .@++XXo .@@#@###$o@+o+ooo++o+oX .+@oooXXX .+ooX ",
".@##@$$@++@@@@@ .       .@@@@@#$$@+@+ooooXXoooo .+ooXXXoX .+ooX ",
".@@@@@@@+@+@@++ .........@@@#+@@@@@@@@ooXX+oXXX .         .+oXo ",
".#@@++@@@++@#@@ .@@@@@+..+@##+++@@@+oo@+ooXXoXX ............... ",
".#@+@@@+@@@@o@+ .#o@+++ .+#@@@+@@#@@ooo+oooXXXX .@@@@#@#@#@@#@@ ",
".@@#@@+@+@o+@+@ .@@@@@o .@@@@@@@#@#@@o+oXXoXoXX .@@@@@@@@@+@@@+ ",
".#@#+@@@@++Xo@@ .@@o@oo .@@@+@+@@#@#@@+XXXXoooo .@@@##@@@+@@@+o ",
".@@+@@$#+++oo+@ .#@@++@ .@#@@@@++@#@@+@ooXXXXXX .@#@###@@++++oo ",
".@@@@$%$++@++o+ .@@@++o .++#++ooo++@@oo+XoXXXXX .@+#+##@@@@oooX ",
".#@@@@$@@o@@XXo .#@@@oo .@@#@++o+o+o+XX++oooXXX .@@@+++@@ooo+Xo ",
".@@#@@@+++ooXXX .@@@++o .@+@@+#oo+oo+oX+++ooXXo .@@@+@+@ooX+Xoo ",
".@@@@@+o++@+oXo .#@@o+o .+@@@@@+ooo++Xoo++ooXXX .@@@@++@oooooXX ",
".#@@@++@o@@+ooX .@@@+oo .+@@+@++@@ooXoXXooooXXX .@@@@+@@++o++XX ",
".@@@+++oo++@+oo .#@@Xoo .@@@++o+@++ooooXXXXoXXX .##@o@@@@+o+++X ",
".@@+++@oXoo@@oo .@@@+oX .@@@@+#@o@+XXoooX.XXX X .@@@+@@@@+o+ooX ",
".@+oooX@oo+XoXX .@@XXoX .+@@+@@@XoooXXXXXXXXXXX .@@@@+@o+ooooXX ",
".+@++X+XoXXoXoX .@@+oXX .@+@@@++XXXoXXXXoooXXXX .@#@+@++oooooXX ",
".@+oo+o+ooooo+o..@+oo+o..@@+++oo++ooooXXooooXXo..#@@o++oo+o+ooo ",
"Oo++ooo+ooo+o++..++o+o+O.@#+++o+o+o+o+oo+oooo+o.O@++o+ooo+ooo++.",
"OOOOOOOOOOOOOOOOOOOOOOOOOOOOOOOOOOOOOOOOOOOOOOOOOOOOOOOOOOOOOOO."
};
