/* XPM */
static char *colorstpne[] = {
/* columns rows colors chars-per-pixel */
"64 64 11 1 ",
"  c #382C14",
". c #2E2E2E",
"X c gray11",
"o c #493819",
"O c #5C4020",
"+ c #6E4925",
"@ c #4D4D4D",
"# c #6E6E6E",
"$ c #80502C",
"% c #8F8F8F",
"& c gray66",
/* pixels */
"##%oOOO+OOOOOOOOOOOOOOoooOOOOOoo##%#####..X....@##@#@@@@@@@#@###",
"%##@ooO+OOOOOOOOOOOOOOo oOOOooo@####%##%@X....@##@#@@@@@##@#####",
"####@oO+OOOOOOOOOoOOOOOooOoOo@@##@OOOo@##@..X@@#@#@@@#####@####@",
"#####@o+OOOOOOOOoOOOOOoooooo@##@oooooo o#@@@@##@#@##@#@@@@@@@@@@",
"@@##%#o+OOOOOOOOOOOOOooooo@##%@Ooooooooo@#####@#@#@@#@@##@#@@@#@",
"@@@###oOOOOOOOOOOOOOO  o@#%##ooooooo o   @%&#@#@@@@@@@@@@@@@@@@@",
"@@@@###ooOOOOOOOOOOoo o@###@ooooooooo o  #&#@#@@@@@@@@@@@@@@@@@@",
"@@@@@##@oOOOOOOOOoOoo@##%#OOoooooooo oo  #&##@@@@@@@@@@@@@@@@@@@",
"@@@@@@##@oOOOOOOooo@###%@Oooooooo oo  o  #%##@@@@@@@.@@@@@@.@@@@",
"@@@@@@%##@oOOoO o@##%##OOoooo ooo oo     #%#@@@@.@@@@@@@@@@@@@@@",
"@@@@@@%###@  O @@#%##@ooooooooooooooo   @#%@@@@@@@@@@@@@@@@@@@@@",
"@@@@.@##%##@@@@@@%##ooOoooooooooo ooo   @###@@@@@@@@@@@@@@@@@@@@",
"@@@@@.####@@##%%%##OOoooooooooooo ooo   @#%@@@@@@@@@@@@@@@@@.@@@",
"@@@@.###@@@#@#&%%#oooOooOoooooooo ooo   ##%@@@@@@@@@@@@@@@@@@@@@",
"@@..###@@@@@@@#%%oOo+oooooooooooo ooo  @@#%#@@@@@@@@@@@@@@@.@@@@",
"@@.#%###@@@@@.@#@OoOoooooooooooo  ooo  @#%###@@@@@@@@@@.@@@@@.@@",
"@.#####@@@@@@@@@#ooOoooooooo ooo  ooo  @#%#@@@@@@@@@@@@@@.@@@@..",
".##@@##@@##@@@@##Ooooooooooooooo  oo   #+O#@@@@@@@@@@@@@@@@@@@.@",
"##.oo@##@@@..@@##OOOoooooooooooo oo  o#OOO@#.@@@@@@@@@@@@@@@@.@@",
"#@OOoo@#@@@@@@@@#@Ooooooooooooo      #+OOOo##.@@.@@@@@@@@..@..@@",
"@OOooo ##@@@.#@#@#@oooooooooooo    @##ooo o##@@@@@@@@@@@...@.@##",
"oOoooo @##@@@@@@@## oooo ooooo    @##%%@###%%##..........@@.@##@",
"Oooooo  @#@@@@@@.#%@ooooooooo o .@#@@@@@@@#%%&#@@.@@.@@.@@.@#%@o",
"oooooooo#%@@@@@@.### o ooooo  @@##@@@.@@@@@#%&%%#@.@@..@..@##@oO",
"oooooo o@###@@O@.#%#@  ooo   @###@@@...@@.@@#%%###@..@.@.####oOo",
"oooooooo #%#.@@@.####       .###@@.@@.@.@..@#%#@@##@...o@###@ooo",
"oooooo oo@###...#%%##@    @@@%@@@@@@.@@..@.@###@@#%#@#@@###@oooo",
"oOoooo oo@#%#####@++@#@@@#@#%@@@@.@.@..@@@.@@#@@@@@#%#%%##@ooooo",
"oooooo oo@##%###++OOOO#@##%#@@@@.@@.@.@@...@##@.@@@##%%###Oooooo",
"oooooo o @#####OOOOOOOo%###@@@.@@@.@..@.@.@##@@@@.@@#####@oooOOo",
"ooooo oo @#%##%#OOOOOOo###@@@@...@.@@..@@.@##%####@##%#@@@oooooO",
"ooooo    @%%#@##%oOOooo%%@#@@@@@.@@.@..@..#@+++++++++oO+##OooOOo",
"oooo  oo@###@@@#%#Oooo##@@@@@@.@@.@.@.@@.@#+O+OOOOOOOoOOO#Oooooo",
"ooooo  .@##@##@@##%##@##@@.@@@@@.@.@.....@#+O+OOOOOOOoOOO#oooooo",
"oooo  @###@#@@@@@##%#%%@@@.@@@@.@@....@..##$O+OOoOOOOoOOo#oooooo",
"ooo  @####@@#@#@@@##%%%@.@@@@@.@@.@@..@.##@$O+OOOOOOOoOOO# ooooo",
"ooo @#####@@@@@@@#@#%%%@@.@@@@@@@@.@..@@##+$O+OOOOOOOoOOo#@ oooo",
"oo @@####@#@@##@@@@@#&%#.@.@@@@...@....@##++O+OOOOOOOoOOo#@@oooo",
"o @#####@#@@@@@@@#@@@#%#.@@@@@@@@.@@...#%@++OOOOOOOOOOOOo#%#@ oo",
" @#@%###@@@##@@#@@@@@@%%@..@@@@.@@.@..@##+++O+OOOOOOoOOOo####@  ",
"@##%%%@@@@@@#@@@@@@@@@###..@@@@@.@.@..@##+O+++OOOOOOoOOOo##%##@@",
"#@%&%@#@@@#@#@@@@#@@@@@##@....@.@..@..@%@++++OOOOOOOOOOOo@...@##",
"##%%#@@@@##@@@##@@@@@@@@#@@..@@@@.@..@##+O++++OOOOOoOOOOo# ....@",
".@%%#@#@#@@#@@@@@#@@.@#@@@@@@..@.@@..@#%+OO++OOOOOOOOOOOo#X...X.",
".X@%@#@@@@#@@@@@@@@@@@@@@@##@....@...#%#oOOO+OOOOOOOOOOOo@....X.",
".X@#@@@@##@@@#@@#@@@@@@@@.#%%#...@@.@####OOO++OOOOOOOOOOo#..X.X.",
"X@#@@@#@@@@##@@#@@@@@@@@.@#%%#@...@.@####@oOO+OOOOOOoOOoo#.X.X..",
"@@##@@@##@@@@@@@@@@@.@@.@@%@o@%@....#%#.@##oOO+OOOOoOOo @#...X..",
"#####@@@@@#@@@@@@@@@.@.@@#@ooo@##@@#%#....###oOOOOOOOooO##XXXXXX",
"#%####@@@#@@@##@@.#...@@#@ooo o @%#%@......###OoOOOOo @###%@@@@@",
"%##%%%@@@@@@@@@@@@@@.@#@@oooooo  @##@..X....###@OoOoo@#@@#@@@##%",
"#@++@%%#@.#@@@#@@@@.@@#@ooooo ooo %#.........@%#@oo@@##@@@@@@@##",
"++OO++@%@@.@#@@@@@..@#@Oooooo o o #@X.....X...###@@@@%#@@@@@@@##",
"OOOOOO++@#@.@@@@@.@#@@ooooo ooo  @#....XX......#%##@%@@@@#@#@@##",
"OOOOOOOO+o#@@@@.@@#@oOooooooo oo@#.......X...X..###%%@@@@@@@@@#+",
"OOOOOOOoOoOo@..@@#oOOoooooooo o @o....X..XXX.....#%%#@@@@#@@.@#+",
"OOOoOOOOOoOOO@@@#@ooOOooooo o  @#...X....XX.......#%@@#@@@@@@@+O",
"OOoOOOOoOoooo@@#@OooOoooooooo @@@....XX...XXXX.....#%@@@@#@@.#+O",
"OOOOOOOooooo@##@oooOOoooooo o @#.....X...X.XXXX.....##@@@@@@@+OO",
"OOOOOOooooo@%##@ooooOooooooo @#@.@.........X..X.X....@@@@@@@@+OO",
"OOOOOOoooo@%#%#@ooooooooooo @#@..@......X..XXXXX...X.X#@@@@@+OOO",
"OOOOOOooo@#@@@##@oooOoooooo @#....X.X..X...XXX..X....X@#@@@#+OOO",
"OOOOOOo @%@@@.@%@ooOOoooooo@@..XX......X...XXXX..X...X@#@@#OOOOO",
"OOOOo  @%#.@.@@@#oooooooo @@#....@..X........XX..XXX..@%###+OOOO"
};
