/* XPM */
static char *eagle[] = {
/* columns rows colors chars-per-pixel */
"64 64 16 1 ",
"  c #2E2E2E",
". c #500000",
"X c #700000",
"o c #543C1C",
"O c #4F004F",
"+ c #67006B",
"@ c #757575",
"# c #4E4E4E",
"$ c #724F22",
"% c #A10000",
"& c #D80101",
"* c #B55502",
"= c #B3B3B3",
"- c #959595",
"; c #C5C5C5",
": c #A5376A",
/* pixels */
"   #    #     #  #      #  # #  #      #o  # #  #   #    #  #   ",
"########################################@##########   ######### ",
"$*&&&&&&&&&&%###&&&&&&&&&&&&&&&&&&&&%# #&&&&&&&&&&&&&&&&&&%%&&%#",
"#*&%%&%%&%%%. ##&%%%%&X%X&%%%%%%X%&%X # &%&%&%&&X&X&%&%%%X&%&** ",
"**$===;==;=;=;=====;=;=;=======;===========;==========;=====;**$",
"=*o@@@@@@@@@@@@@@-@@@@@@@@@@-@@@@@@-@@@-@-@@@-@@@@-@@@@@@@@@@$=$",
"$$*@-@---------------------=---------------------=---=---@@@@o*$",
"$*X-@*%..#XX%XXXXXXXXXX.XXXXXXXXXXXXXXXXXXXXXXXXXX%%&&@...@=@o o",
"#%%=@%;-@.@=;;;;==========;=============;=======;;;=;@.@@-&-@.. ",
"#X.;-.-=-@---=-@=;;=============;====;=========-+#;==-=@=;%@@.. ",
"## ;=.-=;-@@--#O@=;;;;========;=====;;======;;-#+O-==--=;@ @@   ",
"#  ;=#@-=;--@-OOOO--;;;;;;==O@#OOOO***=;==;;-#+OOO----=;;@#@-   ",
"&&&=;.---=;-@@#OOOOO@=======OOOOO-O****;==-#++OOO#---==;=@.-=..&",
"&%X=;X---==@O@##OOOOOO+@-===@OOOOOO*-==-$++OOOOO#@@O@-;-@@.==..%",
"X%%=;%=---#++#@##OOOO+O+O@-==OOOOOO-=-#++O:OOOO#@#++O@=-@-X==..%",
"X%%==X=---O+++O#@# OO+OOO+O==OOOOOO==O+++O+OO #@#O+O++--@-X==..%",
"%%%==%;=--OOO+++O###O OO O#==OOOOOO==#OO OOO  #OOO++++-@--X==..%",
"X%.==X;=--#OOO+++OOOOO OO-==@OOOOOO@==@OOOO OOOOO++++#-@--X==..X",
"X%.=;X;;=-##OO++++O+ OOO@O@=OOOOOOOO=@O@O OOOOOO++++#@@@@=.==..X",
"...==X;;@O@###O+++O+O O OOO==OOOOOO==OO OOOO+OO+++#@@###-=.==...",
"   ==X;;OOO#####+++O+OOOOOO@@OOOOOO@@ OOOOOO++++#-@## OO--X==   ",
"###;=X;;++OOOO  ##@+O+OOOOOOOOOOOOOOOOOOO OO+##--#OOOOOO==X==   ",
"#&&;;X;=+OOOO  OOO+:OOOOOOOOOO+OOOOOOOOOOOOO:++OOOOO O O=-X==.. ",
"#&%;;%;;O+OOOOO  OO+++OOOOOOOO++OOOOOOOOOOO+:OOOOOOOO OO-=X==.. ",
"#&&;;%;-@O+OOOOOO O++OOOOOOO#@#-@###+OOO+OO+++OOOOOO OO@-=X;=.. ",
"#%.==X=--@#OOOO OOOO+OOOOOOO@++++++@+OO+++++O+OOOO  O#@--=X==.. ",
"#%%==X=OO##@@@@##  OOO++OOOO@:++++:-OOOO++OO+###   ####O+;%;=.. ",
"#&X==X-OOOO+OOOOOOOOOO+++O+O@++++++@OO+++O+OOOOO OOOOOO++;%;;.. ",
"#&%-=.=OOOOO+OOOOOOOOOOOOOOO-++++++@O+OOO+O+OOOOOOOOOO+++=%=;.. ",
"#%%--.-OO+O+OOOOOOOOOOOOOOOO@+:#+:+#OO+OOOOOOOO OOO OO+++;%;;.. ",
"## ==.=OOOOOOOOOOOO#OOOO#OOO@#+#++#@OOO#OOOO#OOOOOOOOO+OO=X=-   ",
"###==.-@OOOOOOOO#@OOOOO#OOOO#@-#+=-#OOOO#OOOO @ O OOOO+O@=.==   ",
"&%%==X=-#OOOO#@@OOOOOO@OOOOOOO#@-#OOOO+OO@OOOOOO#@#OOO+@-=X==..&",
"%&%==X==;----@O+OOOOO@OOOOOOOOOOO+OOOOOOOO@OOOOOOO@----=-=X-=..%",
"%X%==X==--@OOOOOOOOO@OOOO+OOOOOOOOOOOOOOOOO@OOOOOOOOO@----.--X.X",
"%X%==X=;OOOOOOOOOOO@OOOO@O@OOO+OOOOOO@O@OOOO@OO OOOO+OOO--.--..X",
"%XX==X==OOOOOOOOOO@OOOO@-@OOOOOOOOOOOO@-@OOOO@OOOOO+O+OO--.--..%",
"%%%==X==@OOOOOOOO@OOOOO-OOOOOOOOOOOOOOOO-OOOOO@OOOO+OOO@=-X--..X",
"XXX==X==-OOOOOOO@OOOOO-OOOOOOOOOOOOOOOOOO-OOOOO@OOOO+OO-=-X-=..X",
"...==%===@OOOOO@OOOOOOOOOOOOOOOOOOOOOOOOOOOOOOOO@OOOOO@===X==...",
"   ;;%;;;=@+OO@OOOOOO-OOOOOOOOOOOOOOOOOOO+=OOOOOO@OOO@====X==   ",
"###;;%;;;==----OOOOO-;+OOOOOO@OOOO@OOOOOO+=-OOOOO----=====X==   ",
" &&;;%;;;====;--OOO-==;@OOOOOOOOOOOOOOOO@;==-OO+--======;;X;=.. ",
"#&%;=%=======@**@====@*+OOOOOOOOOOOOOOOOO*@====@**@==;;;;;%=;.. ",
"#&%;=X;======**********$$OO@=OOOOOO=@OO#$**********;;;;;;;%;;.. ",
"#&%==X========@@$****$$@;===OOOOOOOO==;=@$$****$@@===;=;;;%;;.. ",
" &%==X=======-**********==;OOOOO+OOOO===**********-====;;;X;=.. ",
"#&%-=.===-===*$o-**$=-$*=@OOOOOOOOOOOO@=*#-=$**@$$*=======.==.. ",
" &%==X-==-===$@-=*$====@#OOOOOOOOOOOOOO#@;===$*=-@$=====;=X==.. ",
"#%.==X===========*$==@#OOOOO+OOOOOOOOOOOO#@;=$*===========X;=.. ",
" # ==X-====;====;-*=OOO+OOOOO@OOOO@OOOOOOOOO=*-==========-X=-   ",
"# #==X-=============@#OOOOO@=OOOOOO=@OOOOO#@=============@X==   ",
"&&&==@X@-;==========;=@#OO@=@OOOOOO@=@OO#@===========;=-@X-==..%",
"%%.-==@XXX@-=============;==OOOOOOOO;===;===;=======--XXX@-=@..X",
"%XX.@;==-@XXXX@-;===========@OOOOOO@===========;-@X.XX--===@....",
"%X.X.#@;===;-@XXX@-==========#OOOO#========;=-@XXX--====;@#X..X%",
"X%..X..#@;;====-@.XX@-======;=#OO@========-@XXX@-=====@#..X..XX%",
".%%%X.....X#@==;==--XXX--==;===@@=====;--XXX@-=====-#...X..X.%X%",
"X%%X.%%......X#@=====-@XXXX@-======-@XXX.@-==;==@#..X....X%X.X%.",
"X%.%.X%.%X%.......##=====-@XXX@--@XXX@-====-@#.   .X..%.%X%X%X%X",
"..................   ##-=;==-@XXXX@-;===##.....   .. ...........",
"                         #@========-=@#                         ",
" @ ##  ######   #             @-=@               # ##### ## ## #",
"##############@####                           ##################"
};
