/* XPM */
static char *N[] = {
/* columns rows colors chars-per-pixel */
"64 64 201 2 ",
"   c #0A0A0A",
".  c #0B0B0B",
"X  c #0C0C0C",
"o  c #0D0D0D",
"O  c #0E0E0E",
"+  c #0F0F0F",
"@  c #101010",
"#  c #111111",
"$  c #121212",
"%  c #131313",
"&  c #141414",
"*  c #151515",
"=  c #161616",
"-  c #171717",
";  c #181818",
":  c #1A1A1A",
">  c #1B1B1B",
",  c #1C1C1C",
"<  c #1D1D1D",
"1  c #1E1E1E",
"2  c #1F1F1F",
"3  c #202020",
"4  c #212121",
"5  c #222222",
"6  c #232323",
"7  c #252525",
"8  c #262626",
"9  c #272727",
"0  c #282828",
"q  c #292929",
"w  c #2A2A2A",
"e  c #2B2B2B",
"r  c #2C2C2C",
"t  c #2D2D2D",
"y  c #2E2E2E",
"u  c #2F2F2F",
"i  c #303030",
"p  c #313131",
"a  c #323232",
"s  c #333333",
"d  c #343434",
"f  c #353535",
"g  c #363636",
"h  c #373737",
"j  c #383838",
"k  c #393939",
"l  c #3C3C3C",
"z  c #3D3D3D",
"x  c #3E3E3E",
"c  c #414141",
"v  c #424242",
"b  c #434343",
"n  c #444444",
"m  c #454545",
"M  c #464646",
"N  c #474747",
"B  c #484848",
"V  c #494949",
"C  c #4A4A4A",
"Z  c #4B4B4B",
"A  c #4E4E4E",
"S  c #4F4F4F",
"D  c #505050",
"F  c #515151",
"G  c #525252",
"H  c #535353",
"J  c #545454",
"K  c #565656",
"L  c #575757",
"P  c #585858",
"I  c #595959",
"U  c #5A5A5A",
"Y  c #5B5B5B",
"T  c #5C5C5C",
"R  c #5D5D5D",
"E  c #5E5E5E",
"W  c #5F5F5F",
"Q  c #606060",
"!  c #646464",
"~  c #656565",
"^  c #666666",
"/  c #676767",
"(  c #696969",
")  c #6B6B6B",
"_  c #6D6D6D",
"`  c #6E6E6E",
"'  c #6F6F6F",
"]  c #707070",
"[  c #717171",
"{  c #727272",
"}  c #737373",
"|  c #747474",
" . c #767676",
".. c #777777",
"X. c #787878",
"o. c #797979",
"O. c #7B7B7B",
"+. c #7C7C7C",
"@. c #7D7D7D",
"#. c #7F7F7F",
"$. c #818181",
"%. c #828282",
"&. c #848484",
"*. c #878787",
"=. c #898989",
"-. c #8F8F8F",
";. c #929292",
":. c #939393",
">. c #949494",
",. c #969696",
"<. c #979797",
"1. c #989898",
"2. c #999999",
"3. c #9B9B9B",
"4. c #9C9C9C",
"5. c #9D9D9D",
"6. c #9E9E9E",
"7. c #9F9F9F",
"8. c #A0A0A0",
"9. c #A1A1A1",
"0. c #A3A3A3",
"q. c #A5A5A5",
"w. c #A6A6A6",
"e. c #A7A7A7",
"r. c #A8A8A8",
"t. c #A9A9A9",
"y. c #ABABAB",
"u. c #ACACAC",
"i. c #ADADAD",
"p. c #AEAEAE",
"a. c #AFAFAF",
"s. c #B2B2B2",
"d. c #B4B4B4",
"f. c #B5B5B5",
"g. c #B7B7B7",
"h. c #B8B8B8",
"j. c #BABABA",
"k. c #BBBBBB",
"l. c #BCBCBC",
"z. c #BFBFBF",
"x. c #C0C0C0",
"c. c #C1C1C1",
"v. c #C2C2C2",
"b. c #C4C4C4",
"n. c #C5C5C5",
"m. c #C6C6C6",
"M. c #C8C8C8",
"N. c #C9C9C9",
"B. c #CACACA",
"V. c #CBCBCB",
"C. c #CCCCCC",
"Z. c #CDCDCD",
"A. c #CECECE",
"S. c #CFCFCF",
"D. c #D0D0D0",
"F. c #D1D1D1",
"G. c #D2D2D2",
"H. c #D4D4D4",
"J. c #D5D5D5",
"K. c #D6D6D6",
"L. c #D7D7D7",
"P. c #D8D8D8",
"I. c #D9D9D9",
"U. c #DADADA",
"Y. c #DBDBDB",
"T. c #DCDCDC",
"R. c #DDDDDD",
"E. c #DEDEDE",
"W. c #DFDFDF",
"Q. c #E0E0E0",
"!. c #E1E1E1",
"~. c #E2E2E2",
"^. c #E3E3E3",
"/. c #E4E4E4",
"(. c #E5E5E5",
"). c #E6E6E6",
"_. c #E7E7E7",
"`. c #E8E8E8",
"'. c #E9E9E9",
"]. c #EAEAEA",
"[. c #EBEBEB",
"{. c #ECECEC",
"}. c #EDEDED",
"|. c #EEEEEE",
" X c #EFEFEF",
".X c #F0F0F0",
"XX c #F1F1F1",
"oX c #F2F2F2",
"OX c #F3F3F3",
"+X c #F4F4F4",
"@X c #F5F5F5",
"#X c #F6F6F6",
"$X c #F7F7F7",
"%X c #F8F8F8",
"&X c #F9F9F9",
"*X c #FAFAFA",
"=X c #FBFBFB",
"-X c #FCFCFC",
";X c #FDFDFD",
":X c #FEFEFE",
">X c white",
/* pixels */
">X>X>X>X>X>X>X>X>X>X>X>X>X>X>X>X>X>X>X>X>X>X>X>X>X>X>X>X>X>X>X>X>X>X>X>X>X>X>X>X>X>X>X>X>X>X>X>X>X>X>X>X>X>X>X>X>X>X>X>X>X>X>X>X",
">X>X>X>X>X>X>X>X>X>X>X>X>X>X>X>X>X>X>X>X>X>X>X>X>X>X>X>X>X>X>X>X>X>X>X>X>X>X>X>X>X>X>X>X>X>X>X>X>X>X>X>X>X>X>X>X>X>X>X>X>X>X>X>X",
">X>X>X>X>X>X>X>X>X>X>X>X>X>X>X>X>X>X>X>X>X>X>X>X>X>X>X>X>X>X>X>X>X>X>X>X>X>X>X>X>X>X>X>X>X>X>X>X>X>X>X>X>X>X>X>X>X>X>X>X>X>X>X>X",
">X>X>X>X>X>X>X>X>X>X>X>X>X>X>X>X>X>X>X>X>X>X>X>X>X>X>X>X>X>X>X>X>X>X>X>X>X>X>X>X>X>X>X>X>X>X>X>X>X>X>X%X=X>X>X>X>X>X>X>X>X>X>X>X",
">X>X>X>X>X>X>X>X>X>X>X>X>X>X>X>X>X>X>X>X>X>X>X>X>X>X>X>X>X>X>X>X>X>X>X>X>X>X>X>X>X>X>X>X>X>X>X>X>X>X`.W %.&X>X>X>X>X>X>X>X>X>X>X",
">X>X>X>X>X>X>X>X>X>X>X>X>X>X>X>X>X>X>X>X>X>X>X>X>X>X>X>X>X>X>X>X>X>X>X>X>X>X>X>X>X>X>X>X>X>X>X>X>X>XR.8 u ).>X>X>X>X>X>X>X>X>X>X",
">X>X>X>X>X>X>X>X>X>X^.G.%X>X>X>X>X>X>X>X>X>X>X>X>X>X>X>X>X>X>X>X>X>X>X>X>X>X>X>X>X>X>X>X>X>X>X>X>X>X{.h 7 T.>X>X>X>X>X>X>X>X>X>X",
">X>X>X>X>X>X>X>X>X%XR 2 1.>X>X>X>X>X>X>X>X>X>X>X>X>X>X>X>X>X>X>X>X>X>X>X>X>X>X>X>X>X>X>X>X>X>X>X>X>X+XV ; c.>X>X>X>X>X>X>X>X>X>X",
">X>X>X>X>X>X>X>X>X@XN   f Q.>X>X>X>X>X>X>X>X>X>X>X>X>X>X>X>X>X>X>X>X>X>X>X>X>X>X>X>X>X>X>X>X>X>X>X>X:X*.X #.>X>X>X>X>X>X>X>X>X>X",
">X>X>X>X>X>X>X>X>X@XB o + %.;X>X>X>X>X>X>X>X>X>X>X>X>X>X>X>X>X>X>X>X>X>X>X>X>X>X>X>X>X>X>X>X>X>X>X>X>Xy.o _ >X>X>X>X>X>X>X>X>X>X",
">X>X>X>X>X>X>X>X>X@XB + % 7 M.>X>X>X>X>X>X>X>X>X>X>X>X>X>X>X>X>X>X>X>X>X>X>X>X>X>X>X>X>X>X>X>X>X>X>X>Xs.@ T =X>X>X>X>X>X>X>X>X>X",
">X>X>X>X>X>X>X>X>X@XN , ^ & J  X>X>X>X>X>X>X>X>X>X>X>X>X>X>X>X>X>X>X>X>X>X>X>X>X>X>X>X>X>X>X>X>X>X>X>XZ.> m OX>X>X>X>X>X>X>X>X>X",
">X>X>X>X>X>X>X>X>X@XN , v.T @ ;.:X>X>X>X>X>X>X>X>X>X>X>X>X>X>X>X>X>X>X>X>X>X>X>X>X>X>X>X>X>X>X>X>X>X>XW.w i (.>X>X>X>X>X>X>X>X>X",
">X>X>X>X>X>X>X>X>X@XN > G.D.q 9 V.>X>X>X>X>X>X>X>X>X>X>X>X>X>X>X>X>X>X>X>X>X>X>X>X>X>X>X>X>X>X>X>X>X>X].d 0 Q.>X>X>X>X>X>X>X>X>X",
">X>X>X>X>X>X>X>X>X@XN > S.>X>.@ L XX>X>X>X>X>X>X>X>X>X>X>X>X>X>X>X>X>X>X>X>X>X>X>X>X>X>X>X>X>X>X>X>X>X].d q Q.>X>X>X>X>X>X>X>X>X",
">X>X>X>X>X>X>X>X>X@XN > S.>X XA % y.>X>X>X>X>X>X>X>X>X>X>X>X>X>X>X>X>X>X>X>X>X>X>X>X>X>X>X>X>X>X>X>X>X].d q Q.>X>X>X>X>X>X>X>X>X",
">X>X>X>X>X>X>X>X>X@XN > S.>X>Xf.= C |.>X>X>X>X>X>X>X>X>X>X>X>X>X>X>X>X>X>X>X>X>X>X>X>X>X>X>X>X>X>X>X>X].d q Q.>X>X>X>X>X>X>X>X>X",
">X>X>X>X>X>X>X>X>X@XN > S.>X>X+XK # 8.>X>X>X>X>X>X>X>X>X>X>X>X>X>X>X>X>X>X>X>X>X>X>X>X>X>X>X>X>X>X>X>X].d q Q.>X>X>X>X>X>X>X>X>X",
">X>X>X>X>X>X>X>X>X@XN > S.>X>X>Xz.2 g E.>X>X>X>X>X>X>X>X>X>X>X>X>X>X>X>X>X>X>X>X>X>X>X>X>X>X>X>X>X>X>X].d q Q.>X>X>X>X>X>X>X>X>X",
">X>X>X>X>X>X>X>X>X@XN > S.>X>X>X=X+.O } &X>X>X>X>X>X>X>X>X>X>X>X>X>X>X>X>X>X>X>X>X>X>X>X>X>X>X>X>X>X>X].d q Q.>X>X>X>X>X>X>X>X>X",
">X>X>X>X>X>X>X>X>X@XN > S.>X>X>X>X^.l : g.>X>X>X>X>X>X>X>X>X>X>X>X>X>X>X>X>X>X>X>X>X>X>X>X>X>X>X>X>X>X].d q Q.>X>X>X>X>X>X>X>X>X",
">X>X>X>X>X>X>X>X>X@XN > S.>X>X>X>X>Xu.= B ].>X>X>X>X>X>X>X>X>X>X>X>X>X>X>X>X>X>X>X>X>X>X>X>X>X>X>X>X>X].d 0 Q.>X>X>X>X>X>X>X>X>X",
">X>X>X>X>X>X>X>X>X@XN > S.>X>X>X>X>X$X^ O =.;X>X>X>X>X>X>X>X>X>X>X>X>X>X>X>X>X>X>X>X>X>X>X>X>X>X>X>X>XW.w a ).>X>X>X>X>X>X>X>X>X",
">X>X>X>X>X>X>X>X>X@XN > S.>X>X>X>X>X>XH.u 2 d.>X>X>X>X>X>X>X>X>X>X>X>X>X>X>X>X>X>X>X>X>X>X>X>X>X>X>X>XD., m +X>X>X>X>X>X>X>X>X>X",
">X>X>X>X>X>X>X>X>X@XN > S.>X>X>X>X>X>X>Xs.3 y N.>X>X>X>X>X>X>X>X>X>X>X>X>X>X>X>X>X>X>X>X>X>X>X>X>X>X>XS.> N @X>X>X>X>X>X>X>X>X>X",
">X>X>X>X>X>X>X>X>X@XN > S.>X>X>X>X>X>X>X;X3.= x P.>X>X>X>X>X>X>X>X>X>X>X>X>X>X>X>X>X>X>X>X>X>X>X>X>X>Xb.- F %X>X>X>X>X>X>X>X>X>X",
">X>X>X>X>X>X>X>X>X@XN > S.>X>X>X>X>X>X>X>X&X&.$ A ~.>X>X>X>X>X>X>X>X>X>X>X>X>X>X>X>X>X>X>X>X>X>X>X>X>Xp.+ / ;X>X>X>X>X>X>X>X>X>X",
">X>X>X>X>X>X>X>X>X@XN > S.>X>X>X>X>X>X>X>X>X@X .@ U ].>X>X>X>X>X>X>X>X>X>X>X>X>X>X>X>X>X>X>X>X>X>X>X>X2.X @.>X>X>X>X>X>X>X>X>X>X",
">X>X>X>X>X>X>X>X>X@XN > S.>X>X>X>X>X>X>X>X>X>X X! O { #X>X>X>X>X>X>X>X>X>X>X>X>X>X>X>X>X>X>X>X>X>X>X>X+.X <.>X>X>X>X>X>X>X>X>X>X",
">X>X>X>X>X>X>X>X>X@XN > S.>X>X>X>X>X>X>X>X>X>X>X/.Z % :.-X>X>X>X>X>X>X>X>X>X>X>X>X>X>X>X>X>X>X>X>X>X#XS - x.>X>X>X>X>X>X>X>X>X>X",
">X>X>X>X>X>X>X>X>X@XN > S.>X>X>X>X>X>X>X>X>X>X>X>XD.s < a.>X>X>X>X>X>X>X>X>X>X>X>X>X>X>X>X>X>X>X>X>XU.9 s (.>X>X>X>X>X>X>X>X>X>X",
">X>X>X>X>X>X>X>X>X@XN > S.>X>X>X>X>X>X>X>X>X>X>X>X>Xf.4 e c.>X>X>X>X>X>X>X>X>X>X>X>X>X>X>X>X>X>X>X>X9.+ / =X>X>X>X>X>X>X>X>X>X>X",
">X>X>X>X>X>X>X>X>X@XN > S.>X>X>X>X>X>X>X>X>X>X>X>X>X;X0.> d C.>X>X>X>X>X>X>X>X>X>X>X>X>X>X>X>X>X>X*XE @ i.>X>X>X>X>X>X>X>X>X>X>X",
">X>X>X>X>X>X>X>X>X@XN > S.>X>X>X>X>X>X>X>X>X>X>X>X>X>X-X>.* v R.>X>X>X>X>X>X>X>X>X>X>X>X>X>X>X>X>X'.g 7 I.>X>X>X>X>X>X>X>X>X>X>X",
">X>X>X>X>X>X>X>X>X@XN > S.>X>X>X>X>X>X>X>X>X>X>X>X>X>X>X%X#.@ I [.>X>X>X>X>X>X>X>X>X>X>X>X>X>X>X>XB.> n oX>X>X>X>X>X>X>X>X>X>X>X",
">X>X>X>X>X>X>X>X>X@XN > S.>X>X>X>X>X>X>X>X>X>X>X>X>X>X>X>XXXQ O $.-X>X>X>X>X>X>X>X>X>X>X>X>X>X>X>X9.o ] :X>X>X>X>X>X>X>X>X>X>X>X",
">X>X>X>X>X>X>X>X>X@XN > S.>X>X>X>X>X>X>X>X>X>X>X>X>X>X>X>X>XP.a < k.>X>X>X>X>X>X>X>X>X>X>X>X>X>X:X[ o 6.>X>X>X>X>X>X>X>X>X>X>X>X",
">X>X>X>X>X>X>X>X>X@XN > S.>X>X>X>X>X>X>X>X>X>X>X>X>X>X>X>X>X>Xe.- c !.>X>X>X>X>X>X>X>X>X>X>X>X>X.Xb , V.>X>X>X>X>X>X>X>X>X>X>X>X",
">X>X>X>X>X>X>X>X>X+XM , D.>X>X>X>X>X>X>X>X>X>X>X>X>X>X>X>X>X>X&X| o ` $X>X>X>X>X>X>X>X>X>X>X>X>XD.2 x }.>X>X>X>X>X>X>X>X>X>X>X>X",
">X>X>X>X>X>X>X>X>X|.z 6 L.>X>X>X>X>X>X>X>X>X>X>X>X>X>X>X>X>X>X>X(.m * 0.>X>X>X>X>X>X>X>X>X>X>X>X6.o ' ;X>X>X>X>X>X>X>X>X>X>X>X>X",
">X>X>X>X>X>X>X>X>X).p r !.>X>X>X>X>X>X>X>X>X>X>X>X>X>X>X>X>X>X>X>Xx.4 t F.>X>X>X>X>X>X>X>X>X>X*XW @ y.>X>X>X>X>X>X>X>X>X>X>X>X>X",
">X>X>X>X>X>X>X>X>XT.8 g [.>X>X>X>X>X>X>X>X>X>X>X>X>X>X>X>X>X>X>X>X;X-.@ K }.>X>X>X>X>X>X>X>X>XL.9 p ^.>X>X>X>X>X>X>X>X>X>X>X>X>X",
">X>X>X>X>X>X>X>X>XB.: Z @X>X>X>X>X>X>X>X>X>X>X>X>X>X>X>X>X>X>X>X>X>XXXR + +.%X>X>X>X>X>X>X>X;X*.o  .-X>X>X>X>X>X>X>X>X>X>X>X>X>X",
">X>X>X>X>X>X>X>X>Xf.# Q -X>X>X>X>X>X>X>X>X>X>X>X>X>X>X>X>X>X>X>X>X>X>XE.m * ,.-X>X>X>X>X>X>X}.z 1 V.>X>X>X>X>X>X>X>X>X>X>X>X>X>X",
">X>X>X>X>X>X>X>X>X1.X O.>X>X>X>X>X>X>X>X>X>X>X>X>X>X>X>X>X>X>X>X>X>X>X>XV.0 8 F.>X>X>X>X>X>XC., v XX>X>X>X>X>X>X>X>X>X>X>X>X>X>X",
">X>X>X>X>X>X>X>X-X^ + r.>X>X>X>X>X>X>X>X>X>X>X>X>X>X>X>X>X>X>X>X>X>X>X>X:X*.@ H (.>X>X>X>X>X>.o X.:X>X>X>X>X>X>X>X>X>X>X>X>X>X>X",
">X>X>X>X>X>X>X>X[.k 5 J.>X>X>X>X>X>X>X>X>X>X>X>X>X>X>X>X>X>X>X>X>X>X>X>X>XXX( o | *X>X>X>X>X] o w.>X>X>X>X>X>X>X>X>X>X>X>X>X>X>X",
">X>X>X>X>X>X>X>XA., b XX>X>X>X>X>X>X>X>X>X>X>X>X>X>X>X>X>X>X>X>X>X>X>X>X>X>XW.j , z.>X>X>X>X' o t.>X>X>X>X>X>X>X>X>X>X>X>X>X>X>X",
">X>X>X>X>X>X>X>Xb.* G &X>X>X>X>X>X>X>X>X>X>X>X>X>X>X>X>X>X>X>X>X>X>X>X>X>X>X>X5.@ P @X>X>X*XY % h.>X>X>X>X>X>X>X>X>X>X>X>X>X>X>X",
">X>X>X>X>X>X>X>Xi.@ ~ ;X>X>X>X>X>X>X>X>X>X>X>X>X>X>X>X>X>X>X>X>X>X>X>X>X>X>X>X}.B * q.:X>X].h 7 I.>X>X>X>X>X>X>X>X>X>X>X>X>X>X>X",
">X>X>X>X>X>X>X>X7.. o.>X>X>X>X>X>X>X>X>X>X>X>X>X>X>X>X>X>X>X>X>X>X>X>X>X>X>X>X>Xj., j (.>XK.5 l |.>X>X>X>X>X>X>X>X>X>X>X>X>X>X>X",
">X>X>X>X>X>X>X>X7.X o.>X>X>X>X>X>X>X>X>X>X>X>X>X>X>X>X>X>X>X>X>X>X>X>X>X>X>X>X>X%XR O 4.>Xn.= D %X>X>X>X>X>X>X>X>X>X>X>X>X>X>X>X",
">X>X>X>X>X>X>X>X7.X o.>X>X>X>X>X>X>X>X>X>X>X>X>X>X>X>X>X>X>X>X>X>X>X>X>X>X>X>X>X>Xl.< s P.m.* J *X>X>X>X>X>X>X>X>X>X>X>X>X>X>X>X",
">X>X>X>X>X>X>X>X7.X o.>X>X>X>X>X>X>X>X>X>X>X>X>X>X>X>X>X>X>X>X>X>X>X>X>X>X>X>X>X>X=X*.O ~ l.= H *X>X>X>X>X>X>X>X>X>X>X>X>X>X>X>X",
">X>X>X>X>X>X>X>X7.X o.>X>X>X>X>X>X>X>X>X>X>X>X>X>X>X>X>X>X>X>X>X>X>X>X>X>X>X>X>X>X>X'.b : } ; H *X>X>X>X>X>X>X>X>X>X>X>X>X>X>X>X",
">X>X>X>X>X>X>X>X7.X o.>X>X>X>X>X>X>X>X>X>X>X>X>X>X>X>X>X>X>X>X>X>X>X>X>X>X>X>X>X>X>X>Xe.& 3 # J *X>X>X>X>X>X>X>X>X>X>X>X>X>X>X>X",
">X>X>X>X>X>X>X>X7.X o.>X>X>X>X>X>X>X>X>X>X>X>X>X>X>X>X>X>X>X>X>X>X>X>X>X>X>X>X>X>X>X>X|.Z o o H *X>X>X>X>X>X>X>X>X>X>X>X>X>X>X>X",
">X>X>X>X>X>X>X>X6.  ..>X>X>X>X>X>X>X>X>X>X>X>X>X>X>X>X>X>X>X>X>X>X>X>X>X>X>X>X>X>X>X>X>Xk.1 o c .X>X>X>X>X>X>X>X>X>X>X>X>X>X>X>X",
">X>X>X>X>X>X>X>Xf.8 :.>X>X>X>X>X>X>X>X>X>X>X>X>X>X>X>X>X>X>X>X>X>X>X>X>X>X>X>X>X>X>X>X>X&X/ o s _.>X>X>X>X>X>X>X>X>X>X>X>X>X>X>X",
">X>X>X>X>X>X>X>X%XY.OX>X>X>X>X>X>X>X>X>X>X>X>X>X>X>X>X>X>X>X>X>X>X>X>X>X>X>X>X>X>X>X>X>X>XI.r 1 H.>X>X>X>X>X>X>X>X>X>X>X>X>X>X>X",
">X>X>X>X>X>X>X>X>X>X>X>X>X>X>X>X>X>X>X>X>X>X>X>X>X>X>X>X>X>X>X>X>X>X>X>X>X>X>X>X>X>X>X>X>X-X;.) _.>X>X>X>X>X>X>X>X>X>X>X>X>X>X>X",
">X>X>X>X>X>X>X>X>X>X>X>X>X>X>X>X>X>X>X>X>X>X>X>X>X>X>X>X>X>X>X>X>X>X>X>X>X>X>X>X>X>X>X>X>X>X:X;X>X>X>X>X>X>X>X>X>X>X>X>X>X>X>X>X",
">X>X>X>X>X>X>X>X>X>X>X>X>X>X>X>X>X>X>X>X>X>X>X>X>X>X>X>X>X>X>X>X>X>X>X>X>X>X>X>X>X>X>X>X>X>X>X>X>X>X>X>X>X>X>X>X>X>X>X>X>X>X>X>X",
">X>X>X>X>X>X>X>X>X>X>X>X>X>X>X>X>X>X>X>X>X>X>X>X>X>X>X>X>X>X>X>X>X>X>X>X>X>X>X>X>X>X>X>X>X>X>X>X>X>X>X>X>X>X>X>X>X>X>X>X>X>X>X>X"
};
