/* XPM */
static char *redbrick[] = {
/* columns rows colors chars-per-pixel */
"64 64 9 1 ",
"  c #2F2F2F",
". c #4D0000",
"X c #6E0000",
"o c #4C4C4C",
"O c #646464",
"+ c #8D0000",
"@ c #AB0000",
"# c #D10000",
"$ c #EA0000",
/* pixels */
"   o  o       o   o     o  o     o  o     o o  o   oo   o     o ",
"O ooooooOooooooOo ooooooooOoOoOoooooooooOoooOoooooo   ooOoooooo ",
" $$#########@ooo$$##################@o O$$$$$#$##$########@##@@o",
"o$#@@#+@#+#@. oo$#+@+#+@+@@@@@+@X@#@X o #@#@#@@#X#X#@#+@@X#+#@X ",
"o#@X@+@+X@+XX oo##++@+X+@X+@@X@@X@+X. oo#@@XX@+X+@X+@@+@++@.@XX ",
"o#X@@X+@@X@.. oo#+@@+@X@+@X@XXX@X@XX. oo#X+XX@.@X@X@X@.@+X@X+X. ",
"o#@+++X@XX@X. oo#@+@+X@@XXX@+X+X+X@X.  o#X@+@+X@XX@@X@+@@X@.@X. ",
"o@X@@X@+X+... oo@#X@X@X@X@X@+X+@X++X.  o@+@.+@X+X+X@+@.@++@X@X. ",
"o#+XX.XXXXX..  o++XX.+XX+X.XXXX..XXX.  o@XX.XX.+.X.+.X.XX.X+X+. ",
"oXXX.........  o+.X..X...............  o+X.XX.X..XX............ ",
"oo             Oo                     oO                        ",
"o o  oooo     o oooooo    ooo o oo oooo oOoooOOOOoooo  oo ooooo ",
"$####@@#@#@@@@#@ooo$$########@##@#@#@#@@@##@#@@#@#@#+ooo$$##@###",
"@++@++@+@+@X@++. oo$X@#+#.+@++#+++X+@+@+@X@X#+@@#+#@. o $#+@+@+@",
"+@+@X++X@+X+@@X. oo#@X@X+@+@.@XX+++@X@X@@+X@++X+@X+X. oo#@X@+X@+",
"X+@++X+X+++.@XX.  o#X@++++X++X@+X@+XXXX+@.+X@X@X@@XX. oo#X@@@X@+",
"@++@+XX+X@+X@.X.  o#X@@X@.+@.X@.+@++X+X++.@X@XXX@X@X.   @@X@+@+X",
"X+.@X+X@X@X+@@.. oO#@.@X@+X+.+XX@+X.+@X+.X@X+@X++X@X.  o@X+@.@++",
"X@XX.+X+X+X.+XX. oo@@X+.X+X+XXX.X+X+X+X++X+XX+.X+X+X.  O@@XX.X+X",
"................ oo+.XXXXX.XXXXXX.X.......X.....X.... o @X.X..X.",
"                 o o                                  ooo       ",
"ooo  oo O  o    ooooooo o   ooooo Ooo    ooooo   oooooO oo ooooo",
"o$$########@#@#@@#@#@#@#@#@@ooO$$##########@#@@@@#@#@@#@@#@@@@+o",
"o$+@#X#X@+@+@+@@+@+@+@@X@#X. oo$@X#@@+@@+@@@XX@+X+@X+@++@X+@X+. ",
" $@+@+@+X+@@X++@+.@X@+X+@X@. oO##+@X@X+X++X@.+@X@X@X@+@.@++@XX. ",
"o#.@+X+.@.@X@+@@X+@XX@+.X@X. oO#@+@X@.@X+@X@X@+X@XX@+X++@@X@.X. ",
"o#@+@.@.X+@XX+@X+.X@X@+.@X.. oO#X@X++X++X@.+X+@X+X+X@+@X@X+@XX. ",
"o@XX@.++@X@.@.@+X+@+.@X+XX@. oo##X@X@X@+X@X@.XX.@.@.@.@@XX.X+.. ",
"o#@XXXX.X.XX+X+XX+XXXX+X+XX.  o#@X+X+.XXXXX+X+.@.X@.X+.@.+.@XX. ",
"o@+..XX.X.XXX.X.............  o+X.XX.XXX...XXX.....X....X...X.. ",
"oo                           ooo               o                ",
"ooOoOoo o   ooOOoOoooooo  o  oooooo ooooo   o oooo   oooo ooooo ",
"@#@@#@#@#@@o O########@#@@#@@@#@@@@#@@#@ooO#$##########@#@@#@#@#",
"@@@@+#@@#+. o #@X@X@@X@+@@X@+X@+X@@X@++. oo#@+@X@@.@X+X@X@+@X@X@",
"@X+@+@+@XX. oo#X@X+@X@+X@++X++@+X@X+@X@. Oo#@.@X@+X@++X+++X+X@XX",
"++@@X@X+@X. o #.@@X+@X@X@+@.@.++@XX++X+. OO#++@X@X@+@@+@X@+@@X@X",
"@+X@+@+++X. oo#@.@+@+.@X++X+@.@+.++X+@X. oO#+@@X@.@+X+@X@+@++XX+",
"@XX@X@++@X.  o#X@X.+@X++++@X+.X+X@@X@X@. oO@@X+@X@++X@X@X++@X+@X",
"XX+@XX+XXX. oo+X@+.@XX@X+X@.+X@+X+X@@.X. oo#@.@X@@+@+@X@X+X+X@@X",
"......... . oo@.XXXX.XXX.X.............. oo@.XX..XX.XX.XXXX.X...",
"            ooo        o                 ooo      o             ",
"ooO o  oo    ooo  oo  ooooo   ooooo o o ooooO ooOOOooo  o Ooo o ",
" $#######@#@##@@@#@##@@#@##@@@#+ o $$#########@@@#@#@@@#@@#@@@@o",
"o#@X++X@@++@X@X+@.@X@+@.@.@@XX@. oO$@@.@X@.@X@.@+.@+X@+X@++X+@. ",
"o#@.@XX@++++X+.@+X@.+@+.@X@X@XX. oo#+@X+.+.+.@+@.@X@X+X@+X+@X+. ",
"o#+X@X+X.@X@+X+@X+++.X@.@.+XX+X.  o#+@.X+@X.@X.@@.@XX@X@X@X+X@. ",
" #++@X.@+++@X@.+@X@.+@.@@X+@@XX.  o#@X@+.@.@X@XX.X.@X+++@XX@X+. ",
"o#@X+@X@.@X@.@X@X.@.+X@X+X+X+X+.  O#+X.@XXX@.@.@X@X+X@X+@X++X.. ",
"o#@.@XXX+++@+X+@+.+X.X@.@X+X+X@.  O#X@X+X@.X@+.+X+X@X@X+X@.+X+. ",
"o@XXX.XX.X...................... oo@X.X..XX...X................ ",
"oo          o                    o o           o                ",
"o o ooooooooOOooo oooo     oooo  oo oooooo ooooooooooo      ooo ",
"#####@@##@#@@@#@@@ooo$$#########@@#@@#@@@@#@@#@o o$#####@#@@@#@@",
"X@.@@X+X@X#+@X@++. oo#@+@@X@.@X@X@X@+@X@X@.@X.. oo#@.+@.@X@X@.@X",
"@X+@X@.+XX@.XXXXX. oo#+@X@.X.X@X@X.++XX+X+.@.@. oo#X@.@X@X+@X@+.",
"@X.+@X@XX@X.@+X+X. oo#XXX@XXX@.@.@@X@X@X+.++... oo#X@XX@@+X+XXX+",
"X@.@XX@X@X@.XX.@.. o #@.X@X@.@X@X@X+XX@X@+.X@.. oo#@X.@+XX@X@.X@",
"X@X@.+XX@X@+X+@+X. o #.@@.@XX+.X.@.@XXX.+X.+XX. oo#.@+@X@+XX.@X@",
"X@XXX++X+XX.@.@.+. oo#.@X@.+X+.@.X.@XX@+.@.+.+.  o#X+...+X@X.X@.",
"X+.@XX+.X+@.@XX+.. oO@@.X@X@.+.+X@XX@XX@X+X.X+.  o#.XX+.@X@X@.@X",
".................. oo+......................... oO@.............",
"                    oo                           oo             ",
" O o o ooooooo ooooooOoOoo ooooooo ooo   o     ooooo Ooo oo ooo ",
"oooOooOoooooOOoooOoOoooOoooOooOoooOoooOoOoOoOoOooooooOooooooooOo"
};
