/* XPM */
static char *S[] = {
/* columns rows colors chars-per-pixel */
"64 64 212 2 ",
"   c #080808",
".  c #090909",
"X  c #0A0A0A",
"o  c #0B0B0B",
"O  c #0C0C0C",
"+  c #0D0D0D",
"@  c #0E0E0E",
"#  c #0F0F0F",
"$  c #101010",
"%  c #111111",
"&  c #121212",
"*  c #131313",
"=  c #141414",
"-  c #151515",
";  c #161616",
":  c #171717",
">  c #191919",
",  c #1A1A1A",
"<  c #1B1B1B",
"1  c #1C1C1C",
"2  c #1D1D1D",
"3  c #1E1E1E",
"4  c #1F1F1F",
"5  c #202020",
"6  c #212121",
"7  c #222222",
"8  c #232323",
"9  c #242424",
"0  c #252525",
"q  c #262626",
"w  c #282828",
"e  c #292929",
"r  c #2A2A2A",
"t  c #2B2B2B",
"y  c #2C2C2C",
"u  c #2D2D2D",
"i  c #2E2E2E",
"p  c #2F2F2F",
"a  c #303030",
"s  c #313131",
"d  c #323232",
"f  c #333333",
"g  c #353535",
"h  c #363636",
"j  c #373737",
"k  c #383838",
"l  c #393939",
"z  c #3A3A3A",
"x  c #3B3B3B",
"c  c #3D3D3D",
"v  c #3E3E3E",
"b  c #404040",
"n  c #414141",
"m  c #424242",
"M  c #434343",
"N  c #444444",
"B  c #464646",
"V  c #474747",
"C  c #484848",
"Z  c #494949",
"A  c #4A4A4A",
"S  c #4B4B4B",
"D  c #4E4E4E",
"F  c #4F4F4F",
"G  c #505050",
"H  c #515151",
"J  c #525252",
"K  c #535353",
"L  c #555555",
"P  c #565656",
"I  c #575757",
"U  c #585858",
"Y  c #595959",
"T  c #5A5A5A",
"R  c #5C5C5C",
"E  c #5D5D5D",
"W  c #5E5E5E",
"Q  c #5F5F5F",
"!  c #606060",
"~  c #626262",
"^  c #636363",
"/  c #646464",
"(  c #656565",
")  c #676767",
"_  c #696969",
"`  c #6A6A6A",
"'  c #6C6C6C",
"]  c #6D6D6D",
"[  c #6E6E6E",
"{  c #6F6F6F",
"}  c #707070",
"|  c #717171",
" . c #727272",
".. c #737373",
"X. c #767676",
"o. c #777777",
"O. c #787878",
"+. c #797979",
"@. c #7A7A7A",
"#. c #7B7B7B",
"$. c #7C7C7C",
"%. c #7D7D7D",
"&. c #7E7E7E",
"*. c #808080",
"=. c #818181",
"-. c #828282",
";. c #838383",
":. c #848484",
">. c #858585",
",. c #878787",
"<. c #888888",
"1. c #898989",
"2. c #8A8A8A",
"3. c #8C8C8C",
"4. c #8D8D8D",
"5. c #8E8E8E",
"6. c #8F8F8F",
"7. c #909090",
"8. c #919191",
"9. c #929292",
"0. c #959595",
"q. c #969696",
"w. c #989898",
"e. c #999999",
"r. c #9A9A9A",
"t. c #9B9B9B",
"y. c #9E9E9E",
"u. c #A1A1A1",
"i. c #A3A3A3",
"p. c #A4A4A4",
"a. c #A5A5A5",
"s. c #A7A7A7",
"d. c #A8A8A8",
"f. c #A9A9A9",
"g. c #AAAAAA",
"h. c #ABABAB",
"j. c #ACACAC",
"k. c #ADADAD",
"l. c #AEAEAE",
"z. c #AFAFAF",
"x. c #B0B0B0",
"c. c #B1B1B1",
"v. c #B2B2B2",
"b. c #B3B3B3",
"n. c #B4B4B4",
"m. c #B5B5B5",
"M. c #B6B6B6",
"N. c #B7B7B7",
"B. c #B8B8B8",
"V. c #B9B9B9",
"C. c #BABABA",
"Z. c #BBBBBB",
"A. c #BCBCBC",
"S. c #BDBDBD",
"D. c #BFBFBF",
"F. c #C0C0C0",
"G. c #C1C1C1",
"H. c #C2C2C2",
"J. c #C4C4C4",
"K. c #C5C5C5",
"L. c #C6C6C6",
"P. c #C7C7C7",
"I. c #C8C8C8",
"U. c #C9C9C9",
"Y. c #CACACA",
"T. c #CBCBCB",
"R. c #CCCCCC",
"E. c #CDCDCD",
"W. c #CFCFCF",
"Q. c #D0D0D0",
"!. c #D2D2D2",
"~. c #D4D4D4",
"^. c #D5D5D5",
"/. c #D6D6D6",
"(. c #D7D7D7",
"). c #D8D8D8",
"_. c #D9D9D9",
"`. c #DADADA",
"'. c #DBDBDB",
"]. c #DCDCDC",
"[. c #DDDDDD",
"{. c #DFDFDF",
"}. c #E0E0E0",
"|. c #E1E1E1",
" X c #E2E2E2",
".X c #E3E3E3",
"XX c #E4E4E4",
"oX c #E5E5E5",
"OX c #E6E6E6",
"+X c #E7E7E7",
"@X c #E8E8E8",
"#X c #E9E9E9",
"$X c #EAEAEA",
"%X c #EBEBEB",
"&X c #EDEDED",
"*X c #EFEFEF",
"=X c #F0F0F0",
"-X c #F1F1F1",
";X c #F2F2F2",
":X c #F3F3F3",
">X c #F4F4F4",
",X c #F5F5F5",
"<X c #F6F6F6",
"1X c #F7F7F7",
"2X c #F8F8F8",
"3X c #F9F9F9",
"4X c #FAFAFA",
"5X c #FBFBFB",
"6X c #FCFCFC",
"7X c #FDFDFD",
"8X c #FEFEFE",
"9X c white",
/* pixels */
"9X9X9X9X9X9X9X9X9X9X9X9X9X9X9X9X9X9X9X9X9X9X9X9X9X9X9X9X9X9X9X9X9X9X9X9X9X9X9X9X9X9X9X9X9X9X9X9X9X9X9X9X9X9X9X9X9X9X9X9X9X9X9X9X",
"9X9X9X9X9X9X9X9X9X9X9X9X9X9X9X9X9X9X9X9X9X9X9X9X9X9X9X9X9X9X9X9X9X9X9X9X9X9X9X9X9X9X9X9X9X9X9X9X9X9X9X9X9X9X9X9X9X9X9X9X9X9X9X9X",
"9X9X9X9X9X9X9X9X9X9X9X9X9X9X9X9X9X9X9X9X9X9X9X9X9X9X9X9X9X9X9X9X9X9X9X9X9X9X9X9X9X9X9X9X9X9X9X9X9X9X9X9X9X9X9X9X9X9X9X9X9X9X9X9X",
"9X9X9X9X9X9X9X9X9X9X9X9X9X9X9X9X9X9X9X9X9X9X4X'.U.C.v.v.v.v.v.v.v.v.v.v.v.v.v.v.v.v.v.v.v.V.R.].#X<X9X9X9X9X9X9X9X9X9X9X9X9X9X9X",
"9X9X9X9X9X9X9X9X9X9X9X9X9X9X9X9X9X9X9X9X9X@X$.w < * # # # # # # # # # $ # $ # # # # # # # * 1 w g J e.(.3X9X9X9X9X9X9X9X9X9X9X9X",
"9X9X9X9X9X9X9X9X9X9X9X9X9X9X9X9X9X9X9X>Xb.Z # * g C J J J J J J J J J J J J J J J J J J J Z k e < O @ w W z.=X9X9X9X9X9X9X9X9X9X",
"9X9X9X9X9X9X9X9X9X9X9X9X9X9X9X9X9X8XU.Y > o 0 6.OX>X3X3X3X3X3X3X3X3X3X3X3X3X3X3X3X3X3X3X3X>X$X[.P.5.C < X ; S k.5X9X9X9X9X9X9X9X",
"9X9X9X9X9X9X9X9X9X9X9X9X9X9X9X9X#X3.w o 3 ` Y.8X9X9X9X9X9X9X9X9X9X9X9X9X9X9X9X9X9X9X9X9X9X9X9X9X9X9X-XG.| w o 1 2.1X9X9X9X9X9X9X",
"9X9X9X9X9X9X9X9X9X9X9X9X9X9X1Xx.B $ # V Z.3X9X9X9X9X9X9X9X9X9X9X9X9X9X9X9X9X9X9X9X9X9X9X9X9X9X9X9X9X9X9X7XW.P @ ; 1.>X9X9X9X9X9X",
"9X9X9X9X9X9X9X9X9X9X9X9X6XI.^ > o y 5.@X9X9X9X9X9X9X9X9X9X9X9X9X9X9X9X9X9X9X9X9X9X9X9X9X9X9X9X9X9X9X9X9X9X9XOXU + - C.9X9X9X9X9X",
"9X9X9X9X9X9X9X9X9X9X9X).X.9 X 2 ( W.9X9X9X9X9X9X9X9X9X9X9X9X9X9X9X9X9X9X9X9X9X9X9X9X9X9X9X9X9X9X9X9X9X9X9X9X9X|.~ K _.9X9X9X9X9X",
"9X9X9X9X9X9X9X9X9X8XC.j O - L A.2X9X9X9X9X9X9X9X9X9X9X9X9X9X9X9X9X9X9X9X9X9X9X9X9X9X9X9X9X9X9X9X9X9X9X9X9X9X9X9X2X,X9X9X9X9X9X9X",
"9X9X9X9X9X9X9X9X7Xi.0 O a i.;X9X9X9X9X9X9X9X9X9X9X9X9X9X9X9X9X9X9X9X9X9X9X9X9X9X9X9X9X9X9X9X9X9X9X9X9X9X9X9X9X9X9X9X9X9X9X9X9X9X",
"9X9X9X9X9X9X9X9XE.e O m Y.9X9X9X9X9X9X9X9X9X9X9X9X9X9X9X9X9X9X9X9X9X9X9X9X9X9X9X9X9X9X9X9X9X9X9X9X9X9X9X9X9X9X9X9X9X9X9X9X9X9X9X",
"9X9X9X9X9X9X9X5X[ O w T.9X9X9X9X9X9X9X9X9X9X9X9X9X9X9X9X9X9X9X9X9X9X9X9X9X9X9X9X9X9X9X9X9X9X9X9X9X9X9X9X9X9X9X9X9X9X9X9X9X9X9X9X",
"9X9X9X9X9X9X9X{.i O ..7X9X9X9X9X9X9X9X9X9X9X9X9X9X9X9X9X9X9X9X9X9X9X9X9X9X9X9X9X9X9X9X9X9X9X9X9X9X9X9X9X9X9X9X9X9X9X9X9X9X9X9X9X",
"9X9X9X9X9X9X9XG.> = z.9X9X9X9X9X9X9X9X9X9X9X9X9X9X9X9X9X9X9X9X9X9X9X9X9X9X9X9X9X9X9X9X9X9X9X9X9X9X9X9X9X9X9X9X9X9X9X9X9X9X9X9X9X",
"9X9X9X9X9X9X9Xh.% 2 T.9X9X9X9X9X9X9X9X9X9X9X9X9X9X9X9X9X9X9X9X9X9X9X9X9X9X9X9X9X9X9X9X9X9X9X9X9X9X9X9X9X9X9X9X9X9X9X9X9X9X9X9X9X",
"9X9X9X9X9X9X9Xf.$ 4 Q.9X9X9X9X9X9X9X9X9X9X9X9X9X9X9X9X9X9X9X9X9X9X9X9X9X9X9X9X9X9X9X9X9X9X9X9X9X9X9X9X9X9X9X9X9X9X9X9X9X9X9X9X9X",
"9X9X9X9X9X9X9Xf.$ 3 W.9X9X9X9X9X9X9X9X9X9X9X9X9X9X9X9X9X9X9X9X9X9X9X9X9X9X9X9X9X9X9X9X9X9X9X9X9X9X9X9X9X9X9X9X9X9X9X9X9X9X9X9X9X",
"9X9X9X9X9X9X9XB.; ; m.9X9X9X9X9X9X9X9X9X9X9X9X9X9X9X9X9X9X9X9X9X9X9X9X9X9X9X9X9X9X9X9X9X9X9X9X9X9X9X9X9X9X9X9X9X9X9X9X9X9X9X9X9X",
"9X9X9X9X9X9X9X[.y O O.7X9X9X9X9X9X9X9X9X9X9X9X9X9X9X9X9X9X9X9X9X9X9X9X9X9X9X9X9X9X9X9X9X9X9X9X9X9X9X9X9X9X9X9X9X9X9X9X9X9X9X9X9X",
"9X9X9X9X9X9X9X5X` o d {.9X9X9X9X9X9X9X9X9X9X9X9X9X9X9X9X9X9X9X9X9X9X9X9X9X9X9X9X9X9X9X9X9X9X9X9X9X9X9X9X9X9X9X9X9X9X9X9X9X9X9X9X",
"9X9X9X9X9X9X9X9XZ.< $ 4.8X9X9X9X9X9X9X9X9X9X9X9X9X9X9X9X9X9X9X9X9X9X9X9X9X9X9X9X9X9X9X9X9X9X9X9X9X9X9X9X9X9X9X9X9X9X9X9X9X9X9X9X",
"9X9X9X9X9X9X9X9X<XW o u Q.9X9X9X9X9X9X9X9X9X9X9X9X9X9X9X9X9X9X9X9X9X9X9X9X9X9X9X9X9X9X9X9X9X9X9X9X9X9X9X9X9X9X9X9X9X9X9X9X9X9X9X",
"9X9X9X9X9X9X9X9X9XY.r O U *X9X9X9X9X9X9X9X9X9X9X9X9X9X9X9X9X9X9X9X9X9X9X9X9X9X9X9X9X9X9X9X9X9X9X9X9X9X9X9X9X9X9X9X9X9X9X9X9X9X9X",
"9X9X9X9X9X9X9X9X9X8X0.- & >.4X9X9X9X9X9X9X9X9X9X9X9X9X9X9X9X9X9X9X9X9X9X9X9X9X9X9X9X9X9X9X9X9X9X9X9X9X9X9X9X9X9X9X9X9X9X9X9X9X9X",
"9X9X9X9X9X9X9X9X9X9X>X_ + , 7.2X9X9X9X9X9X9X9X9X9X9X9X9X9X9X9X9X9X9X9X9X9X9X9X9X9X9X9X9X9X9X9X9X9X9X9X9X9X9X9X9X9X9X9X9X9X9X9X9X",
"9X9X9X9X9X9X9X9X9X9X9X.XU @ : ;.;X9X9X9X9X9X9X9X9X9X9X9X9X9X9X9X9X9X9X9X9X9X9X9X9X9X9X9X9X9X9X9X9X9X9X9X9X9X9X9X9X9X9X9X9X9X9X9X",
"9X9X9X9X9X9X9X9X9X9X9X9X+X( $ * ! !.9X9X9X9X9X9X9X9X9X9X9X9X9X9X9X9X9X9X9X9X9X9X9X9X9X9X9X9X9X9X9X9X9X9X9X9X9X9X9X9X9X9X9X9X9X9X",
"9X9X9X9X9X9X9X9X9X9X9X9X9X&XX.< o i 8.$X9X9X9X9X9X9X9X9X9X9X9X9X9X9X9X9X9X9X9X9X9X9X9X9X9X9X9X9X9X9X9X9X9X9X9X9X9X9X9X9X9X9X9X9X",
"9X9X9X9X9X9X9X9X9X9X9X9X9X9X3Xn.b @ $ B d.:X9X9X9X9X9X9X9X9X9X9X9X9X9X9X9X9X9X9X9X9X9X9X9X9X9X9X9X9X9X9X9X9X9X9X9X9X9X9X9X9X9X9X",
"9X9X9X9X9X9X9X9X9X9X9X9X9X9X9X9X.X1.i o - U V.>X9X9X9X9X9X9X9X9X9X9X9X9X9X9X9X9X9X9X9X9X9X9X9X9X9X9X9X9X9X9X9X9X9X9X9X9X9X9X9X9X",
"9X9X9X9X9X9X9X9X9X9X9X9X9X9X9X9X9X9X~. .7 X , H y.].4X9X9X9X9X9X9X9X9X9X9X9X9X9X9X9X9X9X9X9X9X9X9X9X9X9X9X9X9X9X9X9X9X9X9X9X9X9X",
"9X9X9X9X9X9X9X9X9X9X9X9X9X9X9X9X9X9X9X6XK.! 7 o # t Q s..X7X9X9X9X9X9X9X9X9X9X9X9X9X9X9X9X9X9X9X9X9X9X9X9X9X9X9X9X9X9X9X9X9X9X9X",
"9X9X9X9X9X9X9X9X9X9X9X9X9X9X9X9X9X9X9X9X9X3XR.=.M , X % f ' h.[.<X9X9X9X9X9X9X9X9X9X9X9X9X9X9X9X9X9X9X9X9X9X9X9X9X9X9X9X9X9X9X9X",
"9X9X9X9X9X9X9X9X9X9X9X9X9X9X9X9X9X9X9X9X9X9X9X9X*XF.%.z = X % r F O.u.L.|.>X9X9X9X9X9X9X9X9X9X9X9X9X9X9X9X9X9X9X9X9X9X9X9X9X9X9X",
"9X9X9X9X9X9X9X9X9X9X9X9X9X9X9X9X9X9X9X9X9X9X9X9X9X9X9X+XM.@.b 4 $ X + , u A ] w.E.*X8X9X9X9X9X9X9X9X9X9X9X9X9X9X9X9X9X9X9X9X9X9X",
"9X9X9X9X9X9X9X9X9X9X9X9X9X9X9X9X9X9X9X9X9X9X9X9X9X9X9X9X9X9X&XW.g.%.I j 4 % X + 4 n ] t.R.2X9X9X9X9X9X9X9X9X9X9X9X9X9X9X9X9X9X9X",
"9X9X9X9X9X9X9X9X9X9X9X9X9X9X9X9X9X9X9X9X9X9X9X9X9X9X9X9X9X9X9X9X9X9X3X@XQ.c.>.K w * X O 6 W V.:X9X9X9X9X9X9X9X9X9X9X9X9X9X9X9X9X",
"9X9X9X9X9X9X9X9X9X9X9X9X9X9X9X9X9X9X9X9X9X9X9X9X9X9X9X9X9X9X9X9X9X9X9X9X9X9X9X1X`.m.,.D < X , G N.8X9X9X9X9X9X9X9X9X9X9X9X9X9X9X",
"9X9X9X9X9X9X9X9X9X9X9X9X9X9X9X9X9X9X9X9X9X9X9X9X9X9X9X9X9X9X9X9X9X9X9X9X9X9X9X9X9X9X9X:XS./ 5 o 7 8.=X9X9X9X9X9X9X9X9X9X9X9X9X9X",
"9X9X9X9X9X9X9X9X9X9X9X9X9X9X9X9X9X9X9X9X9X9X9X9X9X9X9X9X9X9X9X9X9X9X9X9X9X9X9X9X9X9X9X9X9X3XH.Z @ & ~ @X9X9X9X9X9X9X9X9X9X9X9X9X",
"9X9X9X9X9X9X9X9X9X9X9X9X9X9X9X9X9X9X9X9X9X9X9X9X9X9X9X9X9X9X9X9X9X9X9X9X9X9X9X9X9X9X9X9X9X9X9XoXO.; # Q %X9X9X9X9X9X9X9X9X9X9X9X",
"9X9X9X9X9X9X9X9X9X9X9X9X9X9X9X9X9X9X9X9X9X9X9X9X9X9X9X9X9X9X9X9X9X9X9X9X9X9X9X9X9X9X9X9X9X9X9X9X1X=.= # -.5X9X9X9X9X9X9X9X9X9X9X",
"9X9X9X9X9X9X9X9X9X9X9X9X9X9X9X9X9X9X9X9X9X9X9X9X9X9X9X9X9X9X9X9X9X9X9X9X9X9X9X9X9X9X9X9X9X9X9X9X9X:X~ + r ).9X9X9X9X9X9X9X9X9X9X",
"9X9X9X9X9X9X9X9X9X9X9X9X9X9X9X9X9X9X9X9X9X9X9X9X9X9X9X9X9X9X9X9X9X9X9X9X9X9X9X9X9X9X9X9X9X9X9X9X9X9XJ.2 # 5.9X9X9X9X9X9X9X9X9X9X",
"9X9X9X9X9X9X9X9X9X9X9X9X9X9X9X9X9X9X9X9X9X9X9X9X9X9X9X9X9X9X9X9X9X9X9X9X9X9X9X9X9X9X9X9X9X9X9X9X9X9X,XT o c @X9X9X9X9X9X9X9X9X9X",
"9X9X9X9X9X9X9X!.+.v.8X9X9X9X9X9X9X9X9X9X9X9X9X9X9X9X9X9X9X9X9X9X9X9X9X9X9X9X9X9X9X9X9X9X9X9X9X9X9X9X9Xj.= ; c.9X9X9X9X9X9X9X9X9X",
"9X9X9X9X9X9X9X&.  a `.9X9X9X9X9X9X9X9X9X9X9X9X9X9X9X9X9X9X9X9X9X9X9X9X9X9X9X9X9X9X9X9X9X9X9X9X9X9X9X9X|.p o o.9X9X9X9X9X9X9X9X9X",
"9X9X9X9X9X9X9XV.2 @ 1.9X9X9X9X9X9X9X9X9X9X9X9X9X9X9X9X9X9X9X9X9X9X9X9X9X9X9X9X9X9X9X9X9X9X9X9X9X9X9X9X;Xn . { 9X9X9X9X9X9X9X9X9X",
"9X9X9X9X9X9X9X1XU o x +X9X9X9X9X9X9X9X9X9X9X9X9X9X9X9X9X9X9X9X9X9X9X9X9X9X9X9X9X9X9X9X9X9X9X9X9X9X9X9X[.y o o.9X9X9X9X9X9X9X9X9X",
"9X9X9X9X9X9X9X9Xx.> % 0.9X9X9X9X9X9X9X9X9X9X9X9X9X9X9X9X9X9X9X9X9X9X9X9X9X9X9X9X9X9X9X9X9X9X9X9X9X9X9Xa.* = g.9X9X9X9X9X9X9X9X9X",
"9X9X9X9X9X9X9X9X:XH o n %X9X9X9X9X9X9X9X9X9X9X9X9X9X9X9X9X9X9X9X9X9X9X9X9X9X9X9X9X9X9X9X9X9X9X9X9X9XI.j O x +X9X9X9X9X9X9X9X9X9X",
"9X9X9X9X9X9X9X9X9Xj.- * 9.7X9X9X9X9X9X9X9X9X9X9X9X9X9X9X9X9X9X9X9X9X9X9X9X9X9X9X9X9X9X9X9X9X9X9X1Xb.h O < p.8X9X9X9X9X9X9X9X9X9X",
"9X9X9X9X9X9X9X9X9X*XR + 7 C.9X9X9X9X9X9X9X9X9X9X9X9X9X9X9X9X9X9X9X9X9X9X9X9X9X9X9X9X9X9X9X7X{.l.R < o r i.4X9X9X9X9X9X9X9X9X9X9X",
"9X9X9X9X9X9X9X9X9X9X_.l O x k.XX6X9X9X9X9X9X9X9X9X9X9X9X9X9X9X9X9X9X9X9X9X9X9X9X9X9X5X@XP.#.u * X < / T.9X9X9X9X9X9X9X9X9X9X9X9X",
"9X9X9X9X9X9X9X9X9X9X9Xx.< o = f ^ r.Y.@X<X7X9X9X9X9X9X9X9X9X9X8X3X:X%X+X+XoX_.A.u.:.R h < o & k [ D.1X9X9X9X9X9X9X9X9X9X9X9X9X9X",
"9X9X9X9X9X9X9X9X9X9X9X3Xz.] l ; o + 2 h D ) &.0.l././.J.b.u.<.' K V l s a p q ; O X O > p L e.+X7X9X9X9X9X9X9X9X9X9X9X9X9X9X9X9X",
"9X9X9X9X9X9X9X9X9X9X9X9X9X8X@XC.2.I y < % o . o $ 0 8 : % O X o @ - 1 5 6 6 t l J } r.J. X2X9X9X9X9X9X9X9X9X9X9X9X9X9X9X9X9X9X9X",
"9X9X9X9X9X9X9X9X9X9X9X9X9X9X9X9X9X2X}.U.b.q.*.) N 6 w v F E X.9.h.S.T.^./.(.{.%X2X9X9X9X9X9X9X9X9X9X9X9X9X9X9X9X9X9X9X9X9X9X9X9X",
"9X9X9X9X9X9X9X9X9X9X9X9X9X9X9X9X9X9X9X9X9X9X9X8X=X^.].*X<X6X9X9X9X9X9X9X9X9X9X9X9X9X9X9X9X9X9X9X9X9X9X9X9X9X9X9X9X9X9X9X9X9X9X9X",
"9X9X9X9X9X9X9X9X9X9X9X9X9X9X9X9X9X9X9X9X9X9X9X9X9X9X9X9X9X9X9X9X9X9X9X9X9X9X9X9X9X9X9X9X9X9X9X9X9X9X9X9X9X9X9X9X9X9X9X9X9X9X9X9X",
"9X9X9X9X9X9X9X9X9X9X9X9X9X9X9X9X9X9X9X9X9X9X9X9X9X9X9X9X9X9X9X9X9X9X9X9X9X9X9X9X9X9X9X9X9X9X9X9X9X9X9X9X9X9X9X9X9X9X9X9X9X9X9X9X"
};
