/* XPM */
static char *W[] = {
/* columns rows colors chars-per-pixel */
"64 64 223 2 ",
"   c #0A0A0A",
".  c #0B0B0B",
"X  c #0C0C0C",
"o  c #0D0D0D",
"O  c #0E0E0E",
"+  c #121212",
"@  c #131313",
"#  c #141414",
"$  c #151515",
"%  c #161616",
"&  c #171717",
"*  c #181818",
"=  c #191919",
"-  c #1A1A1A",
";  c #1B1B1B",
":  c #1C1C1C",
">  c #1D1D1D",
",  c #1E1E1E",
"<  c #1F1F1F",
"1  c #202020",
"2  c #212121",
"3  c #222222",
"4  c #232323",
"5  c #242424",
"6  c #252525",
"7  c #262626",
"8  c #272727",
"9  c #282828",
"0  c #292929",
"q  c #2A2A2A",
"w  c #2B2B2B",
"e  c #2C2C2C",
"r  c #2D2D2D",
"t  c #2E2E2E",
"y  c #2F2F2F",
"u  c #303030",
"i  c #313131",
"p  c #333333",
"a  c #343434",
"s  c #353535",
"d  c #363636",
"f  c #373737",
"g  c #383838",
"h  c #393939",
"j  c #3A3A3A",
"k  c #3B3B3B",
"l  c #3C3C3C",
"z  c #3D3D3D",
"x  c #3E3E3E",
"c  c #3F3F3F",
"v  c #404040",
"b  c #414141",
"n  c #424242",
"m  c #434343",
"M  c #444444",
"N  c #454545",
"B  c #464646",
"V  c #474747",
"C  c #484848",
"Z  c #494949",
"A  c #4A4A4A",
"S  c #4B4B4B",
"D  c #4E4E4E",
"F  c #4F4F4F",
"G  c #505050",
"H  c #515151",
"J  c #525252",
"K  c #535353",
"L  c #545454",
"P  c #555555",
"I  c #565656",
"U  c #575757",
"Y  c #585858",
"T  c #595959",
"R  c #5A5A5A",
"E  c #5B5B5B",
"W  c #5C5C5C",
"Q  c #5E5E5E",
"!  c #5F5F5F",
"~  c #606060",
"^  c #616161",
"/  c #626262",
"(  c #636363",
")  c #646464",
"_  c #666666",
"`  c #676767",
"'  c #686868",
"]  c #696969",
"[  c #6A6A6A",
"{  c #6B6B6B",
"}  c #6C6C6C",
"|  c #6D6D6D",
" . c #6E6E6E",
".. c #707070",
"X. c #717171",
"o. c #727272",
"O. c #737373",
"+. c #747474",
"@. c #757575",
"#. c #767676",
"$. c #777777",
"%. c #787878",
"&. c #797979",
"*. c #7A7A7A",
"=. c #7B7B7B",
"-. c #7D7D7D",
";. c #7E7E7E",
":. c #7F7F7F",
">. c #808080",
",. c #818181",
"<. c #828282",
"1. c #848484",
"2. c #858585",
"3. c #878787",
"4. c #888888",
"5. c #8A8A8A",
"6. c #8B8B8B",
"7. c #8D8D8D",
"8. c #8F8F8F",
"9. c #909090",
"0. c #919191",
"q. c #929292",
"w. c #949494",
"e. c #959595",
"r. c #969696",
"t. c #979797",
"y. c #989898",
"u. c #9A9A9A",
"i. c #9C9C9C",
"p. c #9D9D9D",
"a. c #9F9F9F",
"s. c #A0A0A0",
"d. c #A1A1A1",
"f. c #A2A2A2",
"g. c #A3A3A3",
"h. c #A4A4A4",
"j. c #A5A5A5",
"k. c #A6A6A6",
"l. c #A7A7A7",
"z. c #A8A8A8",
"x. c #A9A9A9",
"c. c #AAAAAA",
"v. c #ABABAB",
"b. c #ACACAC",
"n. c #ADADAD",
"m. c #AEAEAE",
"M. c #AFAFAF",
"N. c #B0B0B0",
"B. c #B1B1B1",
"V. c #B2B2B2",
"C. c #B3B3B3",
"Z. c #B4B4B4",
"A. c #B5B5B5",
"S. c #B7B7B7",
"D. c #B8B8B8",
"F. c #B9B9B9",
"G. c #BABABA",
"H. c #BBBBBB",
"J. c #BCBCBC",
"K. c #BDBDBD",
"L. c #BEBEBE",
"P. c #BFBFBF",
"I. c #C0C0C0",
"U. c #C1C1C1",
"Y. c #C3C3C3",
"T. c #C4C4C4",
"R. c #C5C5C5",
"E. c #C6C6C6",
"W. c #C7C7C7",
"Q. c #C8C8C8",
"!. c #C9C9C9",
"~. c #CACACA",
"^. c #CBCBCB",
"/. c #CCCCCC",
"(. c #CDCDCD",
"). c #CECECE",
"_. c #CFCFCF",
"`. c #D0D0D0",
"'. c #D1D1D1",
"]. c #D2D2D2",
"[. c #D3D3D3",
"{. c #D4D4D4",
"}. c #D5D5D5",
"|. c #D6D6D6",
" X c #D7D7D7",
".X c #D8D8D8",
"XX c #D9D9D9",
"oX c #DADADA",
"OX c #DBDBDB",
"+X c #DCDCDC",
"@X c #DDDDDD",
"#X c #DEDEDE",
"$X c #DFDFDF",
"%X c #E0E0E0",
"&X c #E1E1E1",
"*X c #E2E2E2",
"=X c #E3E3E3",
"-X c #E5E5E5",
";X c #E7E7E7",
":X c #E8E8E8",
">X c #E9E9E9",
",X c #EAEAEA",
"<X c #EBEBEB",
"1X c #ECECEC",
"2X c #EDEDED",
"3X c #EEEEEE",
"4X c #EFEFEF",
"5X c #F0F0F0",
"6X c #F1F1F1",
"7X c #F2F2F2",
"8X c #F3F3F3",
"9X c #F4F4F4",
"0X c #F5F5F5",
"qX c #F6F6F6",
"wX c #F7F7F7",
"eX c #F8F8F8",
"rX c #F9F9F9",
"tX c #FAFAFA",
"yX c #FBFBFB",
"uX c #FCFCFC",
"iX c #FDFDFD",
"pX c #FEFEFE",
"aX c white",
/* pixels */
"aXaXaXaXaXaXaXaXaXaXaXaXaXaXaXaXaXaXaXaXaXaXaXaXaXaXaXaXaXaXaXaXaXaXaXaXaXaXaXaXaXaXaXaXaXaXaXaXaXaXaXaXaXaXaXaXaXaXaXaXaXaXaXaX",
"aXaXaXaXaXaXaXaXaXaXaXaXaXaXaXaXaXaXaXaXaXaXaXaXaXaXaXaXaXaXaXaXaXaXaXaXaXaXaXaXaXaXaXaXaXaXaXaXaXaXaXaXaXaXaXaXaXaXaXaXaXaXaXaX",
"aXaXaXaXaXaXaXaXaXaXaXaXaXaXaXaXaXaXaXaXaXaXaXaXaXaXaXaXaXaXaXaXaXaXaXaXaXaXaXaXaXaXaXaXaXaXaXaXaXaXaXaXaXaXaXaXaXaXaXaXaXaXaXaX",
"aXaXaXaXaXaXaXaXaXaXaXaXaXaXaXaXaXaXaXaXaXaXaXaXaXaXaXaXaXaXaXaXaXaXaXaXaXaXaXaXaXaXaXaXaXaXaXaXaXaXaXaXaXaXaXaXaXaXaXaXaXaXaXaX",
"aXaXaXaXaXaXaXaXaXaXaXaXaXaXaXaXaXaXaXaXaXaXaXaXaXaXaXaXaXaXaXaXaXaXaXaXaXaXaXaXaXaXaXaXaXaXaXaXaXaXaXaXaXaXaXaXaXaXaXaXaXaXaXaX",
"aXaXpX:XqXaXaXaXaXaXaXaXaXaXaXaXaXaXaXaXaXaXaXaXaXaXaXaXaXaXaXaXaXaXaXaXaXaXaXaXaXaXaXaXaXaXaXaXaXaXaXaXaXaXaXaXaXaXaXaXaXaXaXaX",
"aXaX;XZ w.aXaXaXaXaXaXaXaXaXaXaXaXaXaXaXaXaXaXaXaXaXaXaXaXaXaXaXaXaXaXaXaXaXaXaXaXaXaXaXaXaXaXaXaXaXaXaXaXaXaXaXaXaXaXaXaXaXaXaX",
"aXaX<Xh M 7XaXaXaXaXaXaXaXaXaXaXaXaXaXaXaXaXaXaXaXaXaXaXaXaXaXaXaXaXaXaXaXaXaXaXaXaXaXaXaXaXaXaXaXaXaXaXaXaXaXaXaXaXaXaXaXaXaXaX",
"aXaXaX..3  XaXaXaXaXaXaXaXaXaXaXaXaXaXaXaXaXaXaXaXaXaXaXaX8Xy.`.aXaXaXaXaXaXaXaXaXaXaXaXaXaXaXaXaXaXaXaXaXaXaXaXaXaXaXaXaXaXaXaX",
"aXaXaXs.# N.aXaXaXaXaXaXaXaXaXaXaXaXaXaXaXaXaXaXaXaXaXaXaXT.& 3.aXaXaXaXaXaXaXaXaXaXaXaXaXaXaXaXaXaXaXaXaXaXaXaXaXaXaXaXaXaXaXaX",
"aXaXaX^.; ;.aXaXaXaXaXaXaXaXaXaXaXaXaXaXaXaXaXaXaXaXaXaXaX>.. 2.aXaXaXaXaXaXaXaXaXaXaXaXaXaXaXaXaXaXaXaXaXaXaXaXaXyX}.6XaXaXaXaX",
"aXaXaX1Xk Z 9XaXaXaXaXaXaXaXaXaXaXaXaXaXaXaXaXaXaXaXaXaX>Xl . 2.aXaXaXaXaXaXaXaXaXaXaXaXaXaXaXaXaXaXaXaXaXaXaXaXaXR.q h.aXaXaXaX",
"aXaXaXaXX.1 ].aXaXaXaXaXaXaXaXaXaXaXaXaXaXaXaXaXaXaXaXaXm.$ o 2.aXaXaXaXaXaXaXaXaXaXaXaXaXaXaXaXaXaXaXaXaXaXaXaXyX| $ S.aXaXaXaX",
"aXaXaXaXc.@ d.aXaXaXaXaXaXaXaXaXaXaXaXaXaXaXaXaXaXaXaXaXo.o o 2.aXaXaXaXaXaXaXaXaXaXaXaXaXaXaXaXaXaXaXaXaXaXaXaXQ.1 I 8XaXaXaXaX",
"aXaXaXaX X4  .aXaXaXaXaXaXaXaXaXaXaXaXaXaXaXaXaXaXaXaX1Xx ; @ 2.aXaXaXaXaXaXaXaXaXaXaXaXaXaXaXaXaXaXaXaXaXaXaXaX;.% F.aXaXaXaXaX",
"aXaXaXaX9XC z 3XaXaXaXaXaXaXaXaXaXaXaXaXaXaXaXaXaXaXaXL.; P < 1.aXaXaXaXaXaXaXaXaXaXaXaXaXaXaXaXaXaXaXaXaXaXaX,Xz g ,XaXaXaXaXaX",
"aXaXaXaXaX&.> ).aXaXaXaXaXaXaXaXaXaXaXaXaXaXaXaXaXaXaX>.; e.2 1.aXaXaXaXaXaXaXaXaXaXaXaXaXaXaXaXaXaXaXaXaXaXaXS.@ $.aXaXaXaXaXaX",
"aXaXaXaXaXb.# g.aXaXaXaXaXaXaXaXaXaXaXaXaXaXaXaXaXaX7XN x I., 1.aXaXaXaXaXaXaXaXaXaXaXaXaXaXaXaXaXaXaXaXaXaXaX%.& G.aXaXaXaXaXaX",
"aXaXaXaXaX|.3 ..aXaXaXaXaXaXaXaXaXaXaXaXaXaXaXaXaXaX{.2 O.[.> 1.aXaXaXaXaXaXaXaXaXaXaXaXaXaXaXaXaXaXaXaXaXaX4Xz M 5XaXaXaXaXaXaX",
"aXaXaXaXaX8XN b 5XaXaXaXaXaXaXaXaXaXaXaXaXaXaXaXaXaXj.# v.|.> 1.aXaXaXaXaXaXaXaXaXaXaXaXaXaXaXaXaXaXaXaXaXaX'., $.aXaXaXaXaXaXaX",
"aXaXaXaXaXaX@.1 [.aXaXaXaXaXaXaXaXaXaXaXaXaXaXaXaXaX=., }.}.> 1.aXaXaXaXaXaXaXaXaXaXaXaXaXaXaXaXaXaXaXaXaXaXh.# x.aXaXaXaXaXaXaX",
"aXaXaXaXaXaXk.@ l.aXaXaXaXaXaXaXaXaXaXaXaXaXaXaXaXiX~ y >X}., <.aXaXaXaXaXaXaXaXaXaXaXaXaXaXaXaXaXaXaXaXaXaX-.> `.aXaXaXaXaXaXaX",
"aXaXaXaXaXaX[.1 +.aXaXaXaXaXaXaXaXaXaXaXaXaXaXaXaX8XN M qXOX5 #.aXaXaXaXaXaXaXaXaXaXaXaXaXaXaXaXaXaXaXaXaXqXF s >XaXaXaXaXaXaXaX",
"aXaXaXaXaXaX6Xm m 6XaXaXaXaXaXaXaXaXaXaXaXaXaXaXaX$X0 ` aX=Xw [ aXaXaXaXaXaXaXaXaXaXaXaXaXaXaXaXaXaXaXaXaX_.1 ' iXaXaXaXaXaXaXaX",
"aXaXaXaXaXaXaXo.2 }.aXaXaXaXaXaXaXaXaXaXaXaXaXaXaXG.% t.aX:Xu ^ pXaXaXaXaXaXaXaXaXaXaXaXaXaXaXaXaXaXaXaXaX1.$ Z.aXaXaXaXaXaXaXaX",
"aXaXaXaXaXaXaXk.# z.aXaXaXaXaXaXaXaXaXaXaXaXaXaXaX4.* Y.aX>Xu ^ pXaXaXaXaXaXaXaXaXaXaXaXaXaXaXaXaXaXaXaX1Xx l <XaXaXaXaXaXaXaXaX",
"aXaXaXaXaXaXaX].< +.aXaXaXaXaXaXaXaXaXaXaXaXaXaXqXD a ;XaX>Xi ! iXaXaXaXaXaXaXaXaXaXaXaXaXaXaXaXaXaXaXaXD.% <.aXaXaXaXaXaXaXaXaX",
"aXaXaXaXaXaXaX5Xv N 8XaXaXaXaXaXaXaXaXaXaXaXaXaX{.3 { pXaX3Xj L rXaXaXaXaXaXaXaXaXaXaXaXaXaXaXaXaXaXaXyX' < ^.aXaXaXaXaXaXaXaXaX",
"aXaXaXaXaXaXaXaX .5 .XaXaXaXaXaXaXaXaXaXaXaXaXaXi.@ x.aXaX0XV N 9XaXaXaXaXaXaXaXaXaXaXaXaXaXaXaXaXaXaXoX7 R eXaXaXaXaXaXaXaXaXaX",
"aXaXaXaXaXaXaXaXd.$ M.aXaXaXaXaXaXaXaXaXaXaXaXrXR 0 +XaXaXrXJ l 5XaXaXaXaXaXaXaXaXaXaXaXaXaXaXaXaXaXaXh.@ s.aXaXaXaXaXaXaXaXaXaX",
"aXaXaXaXaXaXaXaX(.> ;.aXaXaXaXaXaXaXaXaXaXaXaX|.5 ( yXaXaXuXW s ,XaXaXaXaXaXaXaXaXaXaXaXaXaXaXaXaXaXqXI 6 |.aXaXaXaXaXaXaXaXaXaX",
"aXaXaXaXaXaXaXaX1Xh D qXaXaXaXaXaXaXaXaXaXaXaXu.# x.aXaXaXpX_ r -XaXaXaXaXaXaXaXaXaXaXaXaXaXaXaXaXaXJ.= } uXaXaXaXaXaXaXaXaXaXaX",
"aXaXaXaXaXaXaXaXiX) 8 @XaXaXaXaXaXaXaXaXaXaXwXJ r &XaXaXaXaXO.6 +XaXaXaXaXaXaXaXaXaXaXaXaXaXaXaXaX8XU , R.aXaXaXaXaXaXaXaXaXaXaX",
"aXaXaXaXaXaXaXaXaXe.$ F.aXaXaXaXaXaXaXaXaXaX{.3 ' iXaXaXaXaX1.> '.aXaXaXaXaXaXaXaXaXaXaXaXaXaXaXaXB.$ X.yXaXaXaXaXaXaXaXaXaXaXaX",
"aXaXaXaXaXaXaXaXaXU.* 6.aXaXaXaXaXaXaXaXaXaXt.# n.aXaXaXaXaXw.* T.aXaXaXaXaXaXaXaXaXaXaXaXaXaXaX8XJ 7 '.aXaXaXaXaXaXaXaXaXaXaXaX",
"aXaXaXaXaXaXaXaXaX=Xr W yXaXaXaXaXaXaXaXaXwXK y =XaXaXaXaXaXl.$ B.aXaXaXaXaXaXaXaXaXaXaXaXaXaXaXS.% O.iXaXaXaXaXaXaXaXaXaXaXaXaX",
"aXaXaXaXaXaXaXaXaXeXJ a >XaXaXaXaXaXaXaXaX].2 [ iXaXaXaXaXaXP.& w.aXaXaXaXaXaXaXaXaXaXaXaXaXaXeX! 1 ^.aXaXaXaXaXaXaXaXaXaXaXaXaX",
"aXaXaXaXaXaXaXaXaXaX,.; !.aXaXaXaXaXaXaXaXr.@ n.aXaXaXaXaXaX+X6  .aXaXaXaXaXaXaXaXaXaXaXaXaXaXT.: ( tXaXaXaXaXaXaXaXaXaXaXaXaXaX",
"aXaXaXaXaXaXaXaXaXaXm.# s.aXaXaXaXaXaXaXeXY t &XaXaXaXaXaXaX1Xd U tXaXaXaXaXaXaXaXaXaXaXaXaXeX) : I.aXaXaXaXaXaXaXaXaXaXaXaXaXaX",
"aXaXaXaXaXaXaXaXaXaX{.1 @.aXaXaXaXaXaXaXoX7 ( uXaXaXaXaXaXaX9XN B 0XaXaXaXaXaXaXaXaXaXaXaXaXK.- _ rXaXaXaXaXaXaXaXaXaXaXaXaXaXaX",
"aXaXaXaXaXaXaXaXaXaX3Xl A 0XaXaXaXaXaXaXh.# g.aXaXaXaXaXaXaXrXL k 3XaXaXaXaXaXaXaXaXaXaXaXeX~ > T.aXaXaXaXaXaXaXaXaXaXaXaXaXaXaX",
"aXaXaXaXaXaXaXaXaXaXiX) q %XaXaXaXaXaXuX) 6 XXaXaXaXaXaXaXaXpX( r -XaXaXaXaXaXaXaXaXaXaXaXK.- ' tXaXaXaXaXaXaXaXaXaXaXaXaXaXaXaX",
"aXaXaXaXaXaXaXaXaXaXaX9.& P.aXaXaXaXaX*Xt I eXaXaXaXaXaXaXaXaX:., '.aXaXaXaXaXaXaXaXaXaX0XT > T.aXaXaXaXaXaXaXaXaXaXaXaXaXaXaXaX",
"aXaXaXaXaXaXaXaXaXaXaXG.$ w.aXaXaXaXaXD.% 9.aXaXaXaXaXaXaXaXaXd.$ A.aXaXaXaXaXaXaXaXaXaXn.% X.yXaXaXaXaXaXaXaXaXaXaXaXaXaXaXaXaX",
"aXaXaXaXaXaXaXaXaXaXaX#X9 ) iXaXaXaXaX<.- E.aXaXaXaXaXaXaXaXaXS.% g.aXaXaXaXaXaXaXaXaX,XM 9 {.aXaXaXaXaXaXaXaXaXaXaXaXaXaXaXaXaX",
"aXaXaXaXaXaXaXaXaXaXaXwXF g <XaXaXaX0XS h <XaXaXaXaXaXaXaXaXaXW.= 7.aXaXaXaXaXaXaXaXaX0.+ 4.aXaXaXaXaXaXaXaXaXaXaXaXaXaXaXaXaXaX",
"aXaXaXaXaXaXaXaXaXaXaXaX,.; ~.aXaXaX X5 [ pXaXaXaXaXaXaXaXaXaX#X9 ` pXaXaXaXaXaXaXaX[.w l -XaXaXaXaXaXaXaXaXaXaXaXaXaXaXaXaXaXaX",
"aXaXaXaXaXaXaXaXaXaXaXaXV.$ p.aXaXaXl.# g.aXaXaXaXaXaXaXaXaXaX8XM n 6XaXaXaXaXaXaX0X/ & b.aXaXaXaXaXaXaXaXaXaXaXaXaXaXaXaXaXaXaX",
"aXaXaXaXaXaXaXaXaXaXaXaXoX6 ] pXaXaXo.1 ].aXaXaXaXaXaXaXaXaXaXpX[ : ~.aXaXaXaXaXaXf.# } eXaXaXaXaXaXaXaXaXaXaXaXaXaXaXaXaXaXaXaX",
"aXaXaXaXaXaXaXaXaXaXaXaX8XB c 4XaX6Xm m 7XaXaXaXaXaXaXaXaXaXaXaXg.@ m.aXaXaXaXaXOXa i .XaXaXaXaXaXaXaXaXaXaXaXaXaXaXaXaXaXaXaXaX",
"aXaXaXaXaXaXaXaXaXaXaXaXaXO.1 {.aX{.2 +.aXaXaXaXaXaXaXaXaXaXaXaXE.= 1.aXaXaXaXeX} # f.aXaXaXaXaXaXaXaXaXaXaXaXaXaXaXaXaXaXaXaXaX",
"aXaXaXaXaXaXaXaXaXaXaXaXaXg.# b.aXz.$ x.aXaXaXaXaXaXaXaXaXaXaXaX>Xa H eXaXaXaXx.% Q 9XaXaXaXaXaXaXaXaXaXaXaXaXaXaXaXaXaXaXaXaXaX",
"aXaXaXaXaXaXaXaXaXaXaXaXaX/.: -.aXO.2 }.aXaXaXaXaXaXaXaXaXaXaXaXtXU i ;XaXaX Xp y ].aXaXaXaXaXaXaXaXaXaXaXaXaXaXaXaXaXaXaXaXaXaX",
"aXaXaXaXaXaXaXaXaXaXaXaXaX<Xf G >Xn N 7XaXaXaXaXaXaXaXaXaXaXaXaXaX:.; ~.aX8X! $ g.aXaXaXaXaXaXaXaXaXaXaXaXaXaXaXaXaXaXaXaXaXaXaX",
"aXaXaXaXaXaXaXaXaXaXaXaXaXuX! e C.3 +.aXaXaXaXaXaXaXaXaXaXaXaXaXaXM.@ a.aXq.+ { qXaXaXaXaXaXaXaXaXaXaXaXaXaXaXaXaXaXaXaXaXaXaXaX",
"aXaXaXaXaXaXaXaXaXaXaXaXaXaXy.= ) * g.aXaXaXaXaXaXaXaXaXaXaXaXaXaX/.; E Z.4 x %XaXaXaXaXaXaXaXaXaXaXaXaXaXaXaXaXaXaXaXaXaXaXaXaX",
"aXaXaXaXaXaXaXaXaXaXaXaXaXaX~.< ; < ~.aXaXaXaXaXaXaXaXaXaXaXaXaXaX0XQ $ 7 4 H.aXaXaXaXaXaXaXaXaXaXaXaXaXaXaXaXaXaXaXaXaXaXaXaXaX",
"aXaXaXaXaXaXaXaXaXaXaXaXaXaX2Xx X u =XaXaXaXaXaXaXaXaXaXaXaXaXaXaXaXE.< O 8.pXaXaXaXaXaXaXaXaXaXaXaXaXaXaXaXaXaXaXaXaXaXaXaXaXaX",
"aXaXaXaXaXaXaXaXaXaXaXaXaXaXaX*.  M 6XaXaXaXaXaXaXaXaXaXaXaXaXaXaXaXtX5.| 2XaXaXaXaXaXaXaXaXaXaXaXaXaXaXaXaXaXaXaXaXaXaXaXaXaXaX",
"aXaXaXaXaXaXaXaXaXaXaXaXaXaXaXJ.< :.aXaXaXaXaXaXaXaXaXaXaXaXaXaXaXaXaXuXyXaXaXaXaXaXaXaXaXaXaXaXaXaXaXaXaXaXaXaXaXaXaXaXaXaXaXaX",
"aXaXaXaXaXaXaXaXaXaXaXaXaXaXaXwX^.>XaXaXaXaXaXaXaXaXaXaXaXaXaXaXaXaXaXaXaXaXaXaXaXaXaXaXaXaXaXaXaXaXaXaXaXaXaXaXaXaXaXaXaXaXaXaX",
"aXaXaXaXaXaXaXaXaXaXaXaXaXaXaXaXaXaXaXaXaXaXaXaXaXaXaXaXaXaXaXaXaXaXaXaXaXaXaXaXaXaXaXaXaXaXaXaXaXaXaXaXaXaXaXaXaXaXaXaXaXaXaXaX",
"aXaXaXaXaXaXaXaXaXaXaXaXaXaXaXaXaXaXaXaXaXaXaXaXaXaXaXaXaXaXaXaXaXaXaXaXaXaXaXaXaXaXaXaXaXaXaXaXaXaXaXaXaXaXaXaXaXaXaXaXaXaXaXaX",
"aXaXaXaXaXaXaXaXaXaXaXaXaXaXaXaXaXaXaXaXaXaXaXaXaXaXaXaXaXaXaXaXaXaXaXaXaXaXaXaXaXaXaXaXaXaXaXaXaXaXaXaXaXaXaXaXaXaXaXaXaXaXaXaX"
};
